<svg xmlns="http://www.w3.org/2000/svg" xmlns:xlink="http://www.w3.org/1999/xlink" viewBox="0 0 245.99 200.42"><defs><style>.cls-1,.cls-5{fill:none;}.cls-2{fill:#0e0f2d;}.cls-3{fill:#2e3192;}.cls-4{clip-path:url(#clip-path);}.cls-5{stroke:#000;stroke-miterlimit:10;stroke-width:2px;}</style><clipPath id="clip-path" transform="translate(0 -16.45)"><rect class="cls-1" x="0.86" width="258.02" height="142.73"/></clipPath></defs><title>logo-geii-dark</title><g id="Calque_2" data-name="Calque 2"><g id="Calque_1-2" data-name="Calque 1"><path class="cls-2" d="M.4,151.91H4.87v27.42H.4Zm7.89,0a11.18,11.18,0,0,1,3.46.56,9.44,9.44,0,0,1,3.07,1.67,9,9,0,0,1,2.19,2.7,7.47,7.47,0,0,1,.84,3.55,9.76,9.76,0,0,1-.71,3.78,7.83,7.83,0,0,1-2,2.84,8.79,8.79,0,0,1-3.05,1.79,11.76,11.76,0,0,1-3.94.63H6.39v-3.27H9a4.85,4.85,0,0,0,1.62-.28,4.23,4.23,0,0,0,1.47-.91,4.47,4.47,0,0,0,1.07-1.77,8.14,8.14,0,0,0,.41-2.81,7.76,7.76,0,0,0-.18-1.54,4.39,4.39,0,0,0-2.38-3,6,6,0,0,0-2.76-.54H6.39v-3.39Z" transform="translate(0 -16.45)"/><path class="cls-2" d="M27.52,151.91v24H40.13v3.39H23V151.91Z" transform="translate(0 -16.45)"/><path class="cls-2" d="M67.13,179.33H62.52l-7.1-20.54-7.18,20.54H43.59L53.18,152h4.43Zm-9.26-8.71,1.08,3H51.84l1-3Z" transform="translate(0 -16.45)"/><path class="cls-2" d="M92.24,151.91V155H84.06v24.37h-4.5V155H71.37v-3.05Z" transform="translate(0 -16.45)"/><path class="cls-2" d="M97.67,151.91h4.54v27.42H97.67Zm17.15,0v3.39H103.73v-3.39ZM113.66,167h-9.93v-3h9.93Zm-9.93,9h11.09v3.39H103.73Z" transform="translate(0 -16.45)"/><path class="cls-2" d="M121,151.91h4.54v27.42H121Zm17.15,0v3.39H127.09v-3.39ZM137,167h-9.93v-3H137Z" transform="translate(0 -16.45)"/><path class="cls-2" d="M142.34,165.49a19.68,19.68,0,0,1,.8-5.86,12.92,12.92,0,0,1,2.23-4.31,9.93,9.93,0,0,1,3.39-2.72,11.36,11.36,0,0,1,4.26-1.1v3.72a6.24,6.24,0,0,0-2.38.78,5.91,5.91,0,0,0-1.94,1.86,10.21,10.21,0,0,0-1.3,3.13,19.82,19.82,0,0,0,0,9,10.21,10.21,0,0,0,1.32,3.14,6,6,0,0,0,1.95,1.92,5.65,5.65,0,0,0,2.35.76v3.68a11.22,11.22,0,0,1-4.24-1.1,9.78,9.78,0,0,1-3.41-2.71,12.93,12.93,0,0,1-2.23-4.33A19.86,19.86,0,0,1,142.34,165.49Zm12.16-14a10.8,10.8,0,0,1,4.23,1.08,10.1,10.1,0,0,1,3.38,2.74,13.33,13.33,0,0,1,2.25,4.31,21.42,21.42,0,0,1,0,11.74,13.33,13.33,0,0,1-2.25,4.33,9.83,9.83,0,0,1-3.37,2.71,11,11,0,0,1-4.24,1.1v-3.68a6.11,6.11,0,0,0,2.38-.8,5.85,5.85,0,0,0,1.94-1.9,10.47,10.47,0,0,0,1.3-3.12,19.9,19.9,0,0,0,0-9,10,10,0,0,0-1.32-3.12,6.06,6.06,0,0,0-2-1.9,5.65,5.65,0,0,0-2.35-.76Z" transform="translate(0 -16.45)"/><path class="cls-2" d="M171.39,151.91h4.46v27.42h-4.46ZM190,179.33h-4.73l-5.17-9.94-.24,0a2,2,0,0,1-.39,0h-2.08v-3.27h2.53a4.9,4.9,0,0,0,1.63-.28A4.05,4.05,0,0,0,183,165a4.37,4.37,0,0,0,1.08-1.77,8.38,8.38,0,0,0,.41-2.81,7.15,7.15,0,0,0-.19-1.54,4.26,4.26,0,0,0-.76-1.67,4.35,4.35,0,0,0-1.62-1.34,6,6,0,0,0-2.75-.54h-1.82v-3.39h1.9a11.23,11.23,0,0,1,3.46.56,9.29,9.29,0,0,1,3.06,1.67,8.86,8.86,0,0,1,2.2,2.7,7.47,7.47,0,0,1,.83,3.55,8.94,8.94,0,0,1-1.37,5.06,8.28,8.28,0,0,1-3.72,3.09Z" transform="translate(0 -16.45)"/><path class="cls-2" d="M196,151.91h4.54l7.37,16.93v6.88h-1.19l-6.18-15.25v18.86H196Zm20.8,0h4.53v27.42h-4.53V160.47l-6.14,15.25h-1.23v-6.81Z" transform="translate(0 -16.45)"/><path class="cls-2" d="M228.3,151.91h4.54v27.42H228.3Zm17.15,0v3.39H234.36v-3.39ZM244.29,167h-9.93v-3h9.93Zm-9.93,9h11.09v3.39H234.36Z" transform="translate(0 -16.45)"/><rect class="cls-3" y="169.58" width="245.99" height="5.71"/><path d="M82.41,208.21a11.93,11.93,0,0,1,.48-3.6A8.17,8.17,0,0,1,84.21,202a6.26,6.26,0,0,1,2-1.68,6.67,6.67,0,0,1,2.52-.71v2.3a3.49,3.49,0,0,0-1.39.51,3.83,3.83,0,0,0-1.14,1.16,6.3,6.3,0,0,0-.77,1.92,12.75,12.75,0,0,0,0,5.5,6.59,6.59,0,0,0,.77,1.93,3.75,3.75,0,0,0,1.15,1.19,3.3,3.3,0,0,0,1.38.5v2.25a6.46,6.46,0,0,1-2.52-.68,6.26,6.26,0,0,1-2-1.68,8.12,8.12,0,0,1-1.32-2.65A12.07,12.07,0,0,1,82.41,208.21ZM92,203.09a3.88,3.88,0,0,0-1.1-.89,3.16,3.16,0,0,0-1.25-.35v-2.27a6.14,6.14,0,0,1,4.2,1.81Zm-2.35,11.5a3.39,3.39,0,0,0,1.26-.36,3.55,3.55,0,0,0,1.09-.87L93.84,215a6.22,6.22,0,0,1-1.9,1.31,6.57,6.57,0,0,1-2.3.53Z" transform="translate(0 -16.45)"/><path d="M97.75,199.83h2.72v16.92H97.75Zm10.29,0v2.09h-6.65v-2.09Zm-.69,9.3h-6v-1.88h6Zm-6,5.53H108v2.09h-6.65Z" transform="translate(0 -16.45)"/><path d="M111.8,199.83h2.68v16.92H111.8Zm5,0a9.21,9.21,0,0,1,3.65.68,7.35,7.35,0,0,1,4.16,4.36,8.77,8.77,0,0,1,.52,2.95,12.75,12.75,0,0,1-.44,3.57,9.07,9.07,0,0,1-1.1,2.48,5.68,5.68,0,0,1-1.51,1.57,7.6,7.6,0,0,1-1.62.87,6.37,6.37,0,0,1-1.43.36,7.23,7.23,0,0,1-1,.08h-2.64v-2h1.75a4.39,4.39,0,0,0,3.93-1.79,11,11,0,0,0,1-7.28,4.62,4.62,0,0,0-1-1.87,5,5,0,0,0-1.91-1.35,8,8,0,0,0-3.13-.52h-.65v-2.09Z" transform="translate(0 -16.45)"/><path d="M128.91,199.83h2.72l4.42,10.45v4.25h-.71l-3.71-9.42v11.64h-2.72Zm12.48,0h2.73v16.92h-2.73V205.11l-3.68,9.42H137v-4.21Z" transform="translate(0 -16.45)"/><path d="M148.45,213.65a4.57,4.57,0,0,0,.79.36l1,.32a10.17,10.17,0,0,0,1,.24,5.63,5.63,0,0,0,1,.09h.07v2.18h0a10.54,10.54,0,0,1-1.11-.05,9.56,9.56,0,0,1-1.15-.2,5.81,5.81,0,0,1-1.11-.38,3.4,3.4,0,0,1-.9-.58Zm-.36-9.36a4.58,4.58,0,0,1,.34-1.82,4.71,4.71,0,0,1,.9-1.41,4.27,4.27,0,0,1,1.34-1,5.3,5.3,0,0,1,1.62-.47V202a2.45,2.45,0,0,0-1.18.88,2.09,2.09,0,0,0-.47,1.28,2.12,2.12,0,0,0,.47,1.44,4.41,4.41,0,0,0,1.18,1v2.61c-.49-.24-1-.51-1.47-.79a6.68,6.68,0,0,1-1.34-1,4.7,4.7,0,0,1-1-1.33A3.9,3.9,0,0,1,148.09,204.29Zm7.71-1.84a1,1,0,0,1-.27-.16,1.88,1.88,0,0,0-.45-.22,4.41,4.41,0,0,0-.73-.17,5.19,5.19,0,0,0-1.14,0v-2.32a11.43,11.43,0,0,1,2,.22,4.67,4.67,0,0,1,1.65.6c-.09.2-.2.42-.32.66l-.33.66c-.11.21-.19.38-.27.52A1.66,1.66,0,0,1,155.8,202.45Zm-2.59,4.61c.49.23,1,.48,1.5.74a6.51,6.51,0,0,1,1.4.95,4.23,4.23,0,0,1,1.43,3.37,4.41,4.41,0,0,1-.3,1.6,4.82,4.82,0,0,1-.85,1.41A4.77,4.77,0,0,1,155,216.2a5.54,5.54,0,0,1-1.83.58v-2.21a2.29,2.29,0,0,0,1.83-2.5,1.79,1.79,0,0,0-.52-1.33,6.14,6.14,0,0,0-1.31-1Z" transform="translate(0 -16.45)"/><g class="cls-4"><line class="cls-5" x1="44.71" y1="92.7" x2="74.38" y2="119.62"/><line class="cls-5" x1="191.78" y1="103.71" x2="74.38" y2="119.62"/><line class="cls-5" x1="20.08" y1="110.55" x2="45.21" y2="92.78"/><line class="cls-5" x1="58.08" y1="69.55" x2="74.38" y2="119.62"/><line class="cls-5" x1="44.71" y1="92.7" x2="67.08" y2="97.55"/><line class="cls-5" x1="57.08" y1="68.55" x2="114.86" y2="113.49"/><line class="cls-5" x1="74.38" y1="119.62" x2="91.29" y2="94.81"/><line class="cls-5" x1="224.62" y1="68.9" x2="220.45" y2="77.48"/><line class="cls-5" x1="220.39" y1="77.55" x2="190.55" y2="103.84"/><line class="cls-5" x1="145.3" y1="60.42" x2="190.55" y2="103.84"/><line class="cls-5" x1="155.54" y1="70.26" x2="220.39" y2="77.55"/><line class="cls-5" x1="114.86" y1="113.49" x2="149.09" y2="64.4"/><line class="cls-5" x1="59.08" y1="69.55" x2="149.02" y2="64.88"/><line class="cls-5" x1="145.3" y1="60.42" x2="129.05" y2="67.75"/><line class="cls-5" x1="58.08" y1="69.55" x2="82.08" y2="3.55"/><line class="cls-5" x1="145.3" y1="60.42" x2="82.08" y2="3.55"/><line class="cls-5" x1="91.29" y1="94.81" x2="82.08" y2="2.55"/><line class="cls-5" x1="114.86" y1="113.49" x2="130.63" y2="67.01"/><line class="cls-5" x1="91.29" y1="94.81" x2="130.63" y2="67.01"/><line class="cls-5" x1="82.08" y1="3.55" x2="130.63" y2="67.01"/><line class="cls-5" x1="155.54" y1="70.26" x2="192.42" y2="42.58"/><line class="cls-5" x1="224.62" y1="68.9" x2="192.42" y2="42.58"/><line class="cls-5" x1="145.3" y1="60.42" x2="192.42" y2="42.58"/><line class="cls-5" x1="224.62" y1="68.9" x2="229.99" y2="33.07"/><line class="cls-5" x1="192.42" y1="42.58" x2="230.47" y2="33.14"/><line class="cls-5" x1="20.08" y1="110.55" x2="74.38" y2="119.62"/><line class="cls-5" x1="149.5" y1="64.95" x2="153.22" y2="108.5"/><line class="cls-5" x1="74.66" y1="119.57" x2="85.03" y2="138.48"/><line class="cls-5" x1="114.92" y1="114.08" x2="85.03" y2="138.48"/><line class="cls-5" x1="96.01" y1="129.33" x2="111.87" y2="145.8"/><line class="cls-5" x1="153.35" y1="108.59" x2="111.87" y2="145.8"/><line class="cls-5" x1="114.92" y1="113.47" x2="111.87" y2="145.8"/><line class="cls-5" x1="132.61" y1="148.24" x2="114.92" y2="113.47"/><line class="cls-5" x1="153.35" y1="108.59" x2="132.61" y2="148.24"/><circle class="cls-3" cx="230.15" cy="33.03" r="4.15"/><circle class="cls-3" cx="224.37" cy="68.57" r="3.18"/><circle class="cls-3" cx="192.54" cy="42.63" r="2.5"/><circle class="cls-3" cx="190.58" cy="102.98" r="3.95"/><circle class="cls-3" cx="130.63" cy="67.2" r="2.99"/><circle class="cls-3" cx="156.25" cy="70.25" r="2.99"/><circle class="cls-3" cx="91.82" cy="94.64" r="1.85"/><circle class="cls-3" cx="45.46" cy="93.25" r="1.85"/><circle class="cls-3" cx="145.3" cy="60.42" r="3.59"/><circle class="cls-3" cx="57.3" cy="69.42" r="3.59"/><circle class="cls-3" cx="21.3" cy="110.42" r="3.59"/><circle class="cls-3" cx="149.46" cy="64.93" r="1.85"/><circle class="cls-3" cx="74.52" cy="119.66" r="2.99"/><circle class="cls-3" cx="115.21" cy="113.95" r="3.95"/><circle class="cls-3" cx="83.17" cy="4.91" r="4.91"/><circle class="cls-3" cx="152.98" cy="109.32" r="2.32"/><line class="cls-5" x1="85.03" y1="138.48" x2="111.87" y2="145.8"/></g></g></g></svg>