<svg xmlns="http://www.w3.org/2000/svg" xmlns:xlink="http://www.w3.org/1999/xlink" viewBox="0 0 245.84 201.04"><defs><style>.cls-1,.cls-5{fill:none;}.cls-2{fill:#fff;}.cls-3{fill:#73c399;}.cls-4{clip-path:url(#clip-path);}.cls-5{stroke:#fff;stroke-miterlimit:10;stroke-width:2px;}</style><clipPath id="clip-path" transform="translate(0 -16.45)"><rect class="cls-1" x="0.14" width="258.02" height="142.73"/></clipPath></defs><title>logo-gte-light</title><g id="Calque_2" data-name="Calque 2"><g id="Calque_1-2" data-name="Calque 1"><path class="cls-2" d="M.4,152H4.87v27.41H.4Zm7.89,0a10.89,10.89,0,0,1,3.46.56,9.44,9.44,0,0,1,3.07,1.67,8.74,8.74,0,0,1,2.19,2.7,7.42,7.42,0,0,1,.84,3.55,9.67,9.67,0,0,1-.71,3.77,8,8,0,0,1-2,2.85,8.77,8.77,0,0,1-3.05,1.78,11.51,11.51,0,0,1-3.94.64H6.39v-3.28H9a4.85,4.85,0,0,0,1.62-.28,4,4,0,0,0,1.47-.91,4.5,4.5,0,0,0,1.07-1.76,8.21,8.21,0,0,0,.41-2.81,7.68,7.68,0,0,0-.18-1.54,4.53,4.53,0,0,0-.76-1.68A4.62,4.62,0,0,0,11,155.92a6,6,0,0,0-2.75-.54H6.39V152Z" transform="translate(0 -16.45)"/><path class="cls-2" d="M27.52,152v24H40.13v3.38H23V152Z" transform="translate(0 -16.45)"/><path class="cls-2" d="M67.13,179.41H62.52l-7.1-20.53-7.18,20.53H43.59L53.18,152h4.43Zm-9.26-8.7,1.08,3h-7.1l1-3Z" transform="translate(0 -16.45)"/><path class="cls-2" d="M92.24,152v3.05H84.06v24.36h-4.5V155.05H71.37V152Z" transform="translate(0 -16.45)"/><path class="cls-2" d="M97.67,152h4.54v27.41H97.67Zm17.15,0v3.38H103.73V152Zm-1.16,15.06h-9.93V164h9.93Zm-9.93,9h11.09v3.38H103.73Z" transform="translate(0 -16.45)"/><path class="cls-2" d="M121,152h4.54v27.41H121Zm17.15,0v3.38H127.09V152ZM137,167.06h-9.93V164H137Z" transform="translate(0 -16.45)"/><path class="cls-2" d="M142.34,165.57a19.61,19.61,0,0,1,.8-5.85,13,13,0,0,1,2.23-4.32,9.9,9.9,0,0,1,3.39-2.71,11.18,11.18,0,0,1,4.26-1.1v3.72a6.24,6.24,0,0,0-2.38.78A5.71,5.71,0,0,0,148.7,158a10.25,10.25,0,0,0-1.3,3.12,19.82,19.82,0,0,0,0,9,10.27,10.27,0,0,0,1.32,3.15,6,6,0,0,0,1.95,1.91,5.51,5.51,0,0,0,2.35.76v3.69a11.41,11.41,0,0,1-4.24-1.1,9.81,9.81,0,0,1-3.41-2.72,12.83,12.83,0,0,1-2.23-4.33A19.86,19.86,0,0,1,142.34,165.57Zm12.16-14a10.46,10.46,0,0,1,4.23,1.08,10,10,0,0,1,3.38,2.73,13.38,13.38,0,0,1,2.25,4.32,19,19,0,0,1,.82,5.85,19.2,19.2,0,0,1-.82,5.88,13.23,13.23,0,0,1-2.25,4.33,9.86,9.86,0,0,1-3.37,2.72,11.21,11.21,0,0,1-4.24,1.1v-3.69a5.8,5.8,0,0,0,4.32-2.69,10.42,10.42,0,0,0,1.3-3.13,19.86,19.86,0,0,0,0-9,9.94,9.94,0,0,0-1.32-3.13,6.17,6.17,0,0,0-2-1.9,5.8,5.8,0,0,0-2.35-.76Z" transform="translate(0 -16.45)"/><path class="cls-2" d="M171.39,152h4.46v27.41h-4.46ZM190,179.41h-4.73l-5.16-9.93-.25,0-.39,0h-2.08v-3.28h2.53a5,5,0,0,0,1.64-.28,3.84,3.84,0,0,0,1.48-.91,4.4,4.4,0,0,0,1.08-1.76,8.47,8.47,0,0,0,.41-2.81,7.68,7.68,0,0,0-.18-1.54,4.4,4.4,0,0,0-.77-1.68,4.45,4.45,0,0,0-1.62-1.34,6,6,0,0,0-2.75-.54h-1.82V152h1.9a10.89,10.89,0,0,1,3.46.56,9.29,9.29,0,0,1,3.06,1.67,8.63,8.63,0,0,1,2.2,2.7,7.42,7.42,0,0,1,.84,3.55,9,9,0,0,1-1.38,5.06,8.19,8.19,0,0,1-3.72,3.08Z" transform="translate(0 -16.45)"/><path class="cls-2" d="M196,152h4.54l7.37,16.92v6.88h-1.19l-6.18-15.25v18.86H196Zm20.8,0h4.53v27.41h-4.53V160.55l-6.14,15.25h-1.23V169Z" transform="translate(0 -16.45)"/><path class="cls-2" d="M228.3,152h4.54v27.41H228.3Zm17.15,0v3.38H234.36V152Zm-1.16,15.06h-9.93V164h9.93Zm-9.93,9h11.09v3.38H234.36Z" transform="translate(0 -16.45)"/><rect class="cls-3" y="169.67" width="245.84" height="5.71"/><path class="cls-2" d="M48.26,200.46H51v16.92H48.26Zm10.3,0v2.09H51.9v-2.09Zm-.7,9.3h-6v-1.88h6Z" transform="translate(0 -16.45)"/><path class="cls-2" d="M61.35,200.46H64v16.92H61.35Zm11.16,16.92H69.68l-3.11-6.13h-.14l-.24,0H64.94v-2h1.52a2.87,2.87,0,0,0,1-.17,2.43,2.43,0,0,0,.89-.56,2.8,2.8,0,0,0,.65-1.09,5.43,5.43,0,0,0,.24-1.73,5.14,5.14,0,0,0-.11-1,2.71,2.71,0,0,0-.46-1,2.75,2.75,0,0,0-1-.83,3.56,3.56,0,0,0-1.65-.33h-1.1v-2.09h1.14a6.53,6.53,0,0,1,2.08.35,5.46,5.46,0,0,1,1.84,1,5.22,5.22,0,0,1,1.32,1.66,4.66,4.66,0,0,1,.5,2.2,5.67,5.67,0,0,1-.82,3.12,4.94,4.94,0,0,1-2.24,1.9Z" transform="translate(0 -16.45)"/><path class="cls-2" d="M78.9,217.38H76.18V200.46H78.9Z" transform="translate(0 -16.45)"/><path class="cls-2" d="M82.72,208.84a12.44,12.44,0,0,1,.45-3.5,8.3,8.3,0,0,1,1.23-2.59,5.78,5.78,0,0,1,1.87-1.69,6.5,6.5,0,0,1,2.37-.78v2.29a3.71,3.71,0,0,0-1.24.62,4,4,0,0,0-1,1.21,6.63,6.63,0,0,0-.68,1.86,12,12,0,0,0-.27,2.58,12.49,12.49,0,0,0,.27,2.62,7.34,7.34,0,0,0,.68,1.94,4.52,4.52,0,0,0,1,1.3,3.18,3.18,0,0,0,1.24.66v2.09a6.33,6.33,0,0,1-2.37-.79A6,6,0,0,1,84.4,215a8.53,8.53,0,0,1-1.23-2.61A12.34,12.34,0,0,1,82.72,208.84Zm9.58-5.12a3.18,3.18,0,0,0-1.22-1,3.6,3.6,0,0,0-1.43-.3h-.09v-2.27h0a6.65,6.65,0,0,1,2.5.46A6,6,0,0,1,94.16,202ZM95,208.66v6.54a5.12,5.12,0,0,1-1.15,1.09,6.59,6.59,0,0,1-1.34.7,6.7,6.7,0,0,1-1.46.39,9.23,9.23,0,0,1-1.48.12h0v-2c.18,0,.4,0,.66,0a8.05,8.05,0,0,0,.8-.11,5.51,5.51,0,0,0,.78-.22,1.1,1.1,0,0,0,.55-.39v-4.18H89.56v-1.88Z" transform="translate(0 -16.45)"/><path class="cls-2" d="M98.54,208.84a12.33,12.33,0,0,1,.48-3.61,8,8,0,0,1,1.34-2.67,6,6,0,0,1,2-1.67,6.61,6.61,0,0,1,2.56-.68v2.29a3.8,3.8,0,0,0-1.43.49,3.52,3.52,0,0,0-1.17,1.14,6.8,6.8,0,0,0-.78,1.93,12.67,12.67,0,0,0,0,5.57,6.55,6.55,0,0,0,.8,1.94,3.47,3.47,0,0,0,1.17,1.18,3.15,3.15,0,0,0,1.41.47v2.28a6.7,6.7,0,0,1-2.55-.68,5.86,5.86,0,0,1-2-1.68A7.88,7.88,0,0,1,99,212.47,12.57,12.57,0,0,1,98.54,208.84Zm7.3-8.63a6.08,6.08,0,0,1,4.57,2.35,8.37,8.37,0,0,1,1.35,2.67,12,12,0,0,1,.49,3.61,12.22,12.22,0,0,1-.49,3.63,8.27,8.27,0,0,1-1.35,2.67,6.08,6.08,0,0,1-2,1.68,6.61,6.61,0,0,1-2.55.68v-2.28a3.53,3.53,0,0,0,1.43-.49,3.6,3.6,0,0,0,1.16-1.17,6.37,6.37,0,0,0,.78-1.93,12.71,12.71,0,0,0,0-5.58,6.48,6.48,0,0,0-.79-1.93,3.83,3.83,0,0,0-1.17-1.17,3.51,3.51,0,0,0-1.41-.47Z" transform="translate(0 -16.45)"/><path class="cls-2" d="M121.85,208.84a12.26,12.26,0,0,1,.48-3.6,8.18,8.18,0,0,1,1.33-2.64,6.15,6.15,0,0,1,2-1.68,6.62,6.62,0,0,1,2.51-.71v2.29a3.68,3.68,0,0,0-1.38.52,3.83,3.83,0,0,0-1.14,1.16,6.06,6.06,0,0,0-.77,1.92,12.75,12.75,0,0,0,0,5.5,6.26,6.26,0,0,0,.77,1.92,3.79,3.79,0,0,0,1.15,1.2,3.45,3.45,0,0,0,1.37.5v2.25a6.41,6.41,0,0,1-2.51-.68,6.15,6.15,0,0,1-2-1.68,8.13,8.13,0,0,1-1.33-2.65A12.45,12.45,0,0,1,121.85,208.84Zm9.58-5.12a3.57,3.57,0,0,0-1.09-.89,3.16,3.16,0,0,0-1.25-.35v-2.27a6.14,6.14,0,0,1,4.2,1.81Zm-2.34,11.5a3.39,3.39,0,0,0,1.26-.36,3.3,3.3,0,0,0,1.08-.88l1.86,1.68a6.22,6.22,0,0,1-1.9,1.31,6.62,6.62,0,0,1-2.3.53Z" transform="translate(0 -16.45)"/><path class="cls-2" d="M136.79,208.84a12.33,12.33,0,0,1,.48-3.61,8.16,8.16,0,0,1,1.34-2.67,6.13,6.13,0,0,1,2-1.67,6.61,6.61,0,0,1,2.55-.68v2.29a3.92,3.92,0,0,0-1.43.49,3.59,3.59,0,0,0-1.16,1.14,6.52,6.52,0,0,0-.78,1.93,12.67,12.67,0,0,0,0,5.57,6.55,6.55,0,0,0,.79,1.94,3.59,3.59,0,0,0,1.18,1.18,3.15,3.15,0,0,0,1.4.47v2.28a6.7,6.7,0,0,1-2.54-.68,6,6,0,0,1-2-1.68,8.06,8.06,0,0,1-1.34-2.67A12.57,12.57,0,0,1,136.79,208.84Zm7.31-8.63a6.2,6.2,0,0,1,2.53.66,6.32,6.32,0,0,1,2,1.69,8.37,8.37,0,0,1,1.35,2.67,12.31,12.31,0,0,1,.49,3.61,12.55,12.55,0,0,1-.49,3.63,8.27,8.27,0,0,1-1.35,2.67,6,6,0,0,1-2,1.68,6.51,6.51,0,0,1-2.54.68v-2.28a3.58,3.58,0,0,0,1.43-.49,3.7,3.7,0,0,0,1.16-1.17,6.37,6.37,0,0,0,.78-1.93,12.71,12.71,0,0,0,0-5.58,6.48,6.48,0,0,0-.79-1.93,3.83,3.83,0,0,0-1.17-1.17,3.51,3.51,0,0,0-1.41-.47Z" transform="translate(0 -16.45)"/><path class="cls-2" d="M158.82,200.81a2.74,2.74,0,0,1-.21,1,5.49,5.49,0,0,1-.55,1c-.23.34-.49.67-.76,1s-.55.62-.83.91-.54.55-.78.78l-.6.59H159v1.23H153.3V206l.62-.55.85-.78c.31-.29.61-.6.92-.92s.58-.66.83-1a6.93,6.93,0,0,0,.62-1,2,2,0,0,0,.24-.91,1.48,1.48,0,0,0-.16-.74,1.37,1.37,0,0,0-.39-.49,1.26,1.26,0,0,0-.51-.27,2,2,0,0,0-.52-.08,6,6,0,0,0-.8,0c-.21,0-.39.05-.55.08a2,2,0,0,0-.42.16l-.39.23-.44-.94a2.63,2.63,0,0,1,.55-.37,4.32,4.32,0,0,1,.68-.26,6.36,6.36,0,0,1,.7-.16,3.72,3.72,0,0,1,.64-.06,3.2,3.2,0,0,1,1.38.27,2.78,2.78,0,0,1,.94.68,2.62,2.62,0,0,1,.55.92A2.91,2.91,0,0,1,158.82,200.81Z" transform="translate(0 -16.45)"/><path class="cls-2" d="M168,200.46h2.73v16.92H168Zm12.53,0v16.92h-2.68v-7.62h-6.21v-1.88h6.21v-7.42Z" transform="translate(0 -16.45)"/><path class="cls-2" d="M189.26,200.81a3,3,0,0,1-.21,1,6.2,6.2,0,0,1-.56,1,11.47,11.47,0,0,1-.76,1c-.28.32-.55.62-.83.91s-.53.55-.78.78l-.6.59h3.87v1.23h-5.66V206l.62-.55.85-.78c.31-.29.61-.6.92-.92s.58-.66.83-1a6.93,6.93,0,0,0,.62-1,2,2,0,0,0,.24-.91,1.6,1.6,0,0,0-.15-.74,1.62,1.62,0,0,0-.39-.49,1.36,1.36,0,0,0-.52-.27,2,2,0,0,0-.52-.08,6,6,0,0,0-.8,0c-.21,0-.39.05-.55.08a2.61,2.61,0,0,0-.42.16l-.39.23-.43-.94a2.55,2.55,0,0,1,.54-.37,4.32,4.32,0,0,1,.68-.26,6.36,6.36,0,0,1,.7-.16,3.81,3.81,0,0,1,.64-.06,3.2,3.2,0,0,1,1.38.27,2.93,2.93,0,0,1,.95.68,2.78,2.78,0,0,1,.55.92A3.18,3.18,0,0,1,189.26,200.81Z" transform="translate(0 -16.45)"/><g class="cls-4"><line class="cls-5" x1="44" y1="92.7" x2="73.66" y2="119.62"/><line class="cls-5" x1="191.06" y1="103.71" x2="73.66" y2="119.62"/><line class="cls-5" x1="19.36" y1="110.55" x2="44.49" y2="92.78"/><line class="cls-5" x1="57.36" y1="69.55" x2="73.66" y2="119.62"/><line class="cls-5" x1="44" y1="92.7" x2="66.36" y2="97.55"/><line class="cls-5" x1="56.36" y1="68.55" x2="114.15" y2="113.49"/><line class="cls-5" x1="73.66" y1="119.62" x2="90.57" y2="94.81"/><line class="cls-5" x1="223.9" y1="68.9" x2="219.73" y2="77.48"/><line class="cls-5" x1="219.67" y1="77.55" x2="189.84" y2="103.84"/><line class="cls-5" x1="144.58" y1="60.42" x2="189.84" y2="103.84"/><line class="cls-5" x1="154.82" y1="70.26" x2="219.67" y2="77.55"/><line class="cls-5" x1="114.15" y1="113.49" x2="148.38" y2="64.4"/><line class="cls-5" x1="58.36" y1="69.55" x2="148.3" y2="64.88"/><line class="cls-5" x1="144.58" y1="60.42" x2="128.34" y2="67.75"/><line class="cls-5" x1="57.36" y1="69.55" x2="81.36" y2="3.55"/><line class="cls-5" x1="144.58" y1="60.42" x2="81.36" y2="3.55"/><line class="cls-5" x1="90.57" y1="94.81" x2="81.36" y2="2.55"/><line class="cls-5" x1="114.15" y1="113.49" x2="129.91" y2="67.01"/><line class="cls-5" x1="90.57" y1="94.81" x2="129.91" y2="67.01"/><line class="cls-5" x1="81.36" y1="3.55" x2="129.91" y2="67.01"/><line class="cls-5" x1="154.82" y1="70.26" x2="191.71" y2="42.58"/><line class="cls-5" x1="223.9" y1="68.9" x2="191.71" y2="42.58"/><line class="cls-5" x1="144.58" y1="60.42" x2="191.71" y2="42.58"/><line class="cls-5" x1="223.9" y1="68.9" x2="229.28" y2="33.07"/><line class="cls-5" x1="191.71" y1="42.58" x2="229.75" y2="33.14"/><line class="cls-5" x1="19.36" y1="110.55" x2="73.66" y2="119.62"/><line class="cls-5" x1="148.78" y1="64.95" x2="152.51" y2="108.5"/><line class="cls-5" x1="73.95" y1="119.57" x2="84.32" y2="138.48"/><line class="cls-5" x1="114.2" y1="114.08" x2="84.32" y2="138.48"/><line class="cls-5" x1="95.29" y1="129.33" x2="111.15" y2="145.8"/><line class="cls-5" x1="152.63" y1="108.59" x2="111.15" y2="145.8"/><line class="cls-5" x1="114.2" y1="113.47" x2="111.15" y2="145.8"/><line class="cls-5" x1="131.89" y1="148.24" x2="114.2" y2="113.47"/><line class="cls-5" x1="152.63" y1="108.59" x2="131.89" y2="148.24"/><circle class="cls-3" cx="229.43" cy="33.03" r="4.15"/><circle class="cls-3" cx="223.65" cy="68.57" r="3.18"/><circle class="cls-3" cx="191.82" cy="42.63" r="2.5"/><circle class="cls-3" cx="189.87" cy="102.98" r="3.95"/><circle class="cls-3" cx="129.92" cy="67.2" r="2.99"/><circle class="cls-3" cx="155.54" cy="70.25" r="2.99"/><circle class="cls-3" cx="91.1" cy="94.64" r="1.85"/><circle class="cls-3" cx="44.75" cy="93.25" r="1.85"/><circle class="cls-3" cx="144.58" cy="60.42" r="3.59"/><circle class="cls-3" cx="56.58" cy="69.42" r="3.59"/><circle class="cls-3" cx="20.58" cy="110.42" r="3.59"/><circle class="cls-3" cx="148.75" cy="64.93" r="1.85"/><circle class="cls-3" cx="73.8" cy="119.66" r="2.99"/><circle class="cls-3" cx="114.49" cy="113.95" r="3.95"/><circle class="cls-3" cx="82.45" cy="4.91" r="4.91"/><circle class="cls-3" cx="152.27" cy="109.32" r="2.32"/><line class="cls-5" x1="84.32" y1="138.48" x2="111.15" y2="145.8"/></g></g></g></svg>