<svg xmlns="http://www.w3.org/2000/svg" xmlns:xlink="http://www.w3.org/1999/xlink" viewBox="0 0 246.23 200.67"><defs><style>.cls-1,.cls-5{fill:none;}.cls-2{fill:#fff;}.cls-3{fill:#a3ebf7;}.cls-4{clip-path:url(#clip-path);}.cls-5{stroke:#fff;stroke-miterlimit:10;stroke-width:2px;}</style><clipPath id="clip-path" transform="translate(0 -16.45)"><rect class="cls-1" x="0.19" width="258.02" height="142.73"/></clipPath></defs><title>logo-chimie-light</title><g id="Calque_2" data-name="Calque 2"><g id="Calque_1-2" data-name="Calque 1"><path class="cls-2" d="M.4,151.8H4.87v27.41H.4Zm7.89,0a11.18,11.18,0,0,1,3.46.56A9.44,9.44,0,0,1,14.82,154a8.86,8.86,0,0,1,2.19,2.7,7.44,7.44,0,0,1,.84,3.55,9.76,9.76,0,0,1-.71,3.78,8,8,0,0,1-2,2.84,8.79,8.79,0,0,1-3.05,1.79,11.76,11.76,0,0,1-3.94.63H6.39v-3.27H9a5.11,5.11,0,0,0,1.62-.28,4.23,4.23,0,0,0,1.47-.91,4.55,4.55,0,0,0,1.07-1.77,8.18,8.18,0,0,0,.41-2.81,7.68,7.68,0,0,0-.18-1.54,4.38,4.38,0,0,0-2.38-3,6.15,6.15,0,0,0-2.76-.54H6.39V151.8Z" transform="translate(0 -16.45)"/><path class="cls-2" d="M27.52,151.8v24H40.13v3.38H23V151.8Z" transform="translate(0 -16.45)"/><path class="cls-2" d="M67.13,179.21H62.52l-7.1-20.53-7.18,20.53H43.59l9.59-27.37h4.43Zm-9.26-8.7,1.08,3H51.84l1-3Z" transform="translate(0 -16.45)"/><path class="cls-2" d="M92.24,151.8v3H84.06v24.36h-4.5V154.85H71.37v-3Z" transform="translate(0 -16.45)"/><path class="cls-2" d="M97.67,151.8h4.54v27.41H97.67Zm17.15,0v3.38H103.73V151.8Zm-1.16,15.06h-9.93v-3.05h9.93Zm-9.93,9h11.09v3.38H103.73Z" transform="translate(0 -16.45)"/><path class="cls-2" d="M121,151.8h4.54v27.41H121Zm17.15,0v3.38H127.09V151.8ZM137,166.86h-9.93v-3.05H137Z" transform="translate(0 -16.45)"/><path class="cls-2" d="M142.34,165.38a19.68,19.68,0,0,1,.8-5.86,13,13,0,0,1,2.23-4.32,10,10,0,0,1,3.39-2.71,11.36,11.36,0,0,1,4.26-1.1v3.72a6.24,6.24,0,0,0-2.38.78,5.71,5.71,0,0,0-1.94,1.86,10.21,10.21,0,0,0-1.3,3.13,19.82,19.82,0,0,0,0,9,10.21,10.21,0,0,0,1.32,3.14,6,6,0,0,0,1.95,1.91,5.67,5.67,0,0,0,2.35.77v3.68a11.41,11.41,0,0,1-4.24-1.1,9.9,9.9,0,0,1-3.41-2.71,13,13,0,0,1-2.23-4.34A19.84,19.84,0,0,1,142.34,165.38Zm12.16-14a10.63,10.63,0,0,1,4.23,1.08,10.07,10.07,0,0,1,3.38,2.73,13.38,13.38,0,0,1,2.25,4.32,21.38,21.38,0,0,1,0,11.73,13.38,13.38,0,0,1-2.25,4.34,10,10,0,0,1-3.37,2.71,11.21,11.21,0,0,1-4.24,1.1v-3.68a6.11,6.11,0,0,0,2.38-.8,5.94,5.94,0,0,0,1.94-1.9,10.47,10.47,0,0,0,1.3-3.12,19.9,19.9,0,0,0,0-9,10,10,0,0,0-1.32-3.13,6,6,0,0,0-2-1.89,5.67,5.67,0,0,0-2.35-.77Z" transform="translate(0 -16.45)"/><path class="cls-2" d="M171.39,151.8h4.46v27.41h-4.46ZM190,179.21h-4.73l-5.17-9.93-.24,0-.39,0h-2.08v-3.27h2.53a5.17,5.17,0,0,0,1.63-.28,4.05,4.05,0,0,0,1.49-.91,4.44,4.44,0,0,0,1.08-1.77,8.42,8.42,0,0,0,.41-2.81,7.08,7.08,0,0,0-.19-1.54,4.3,4.3,0,0,0-.76-1.68,4.45,4.45,0,0,0-1.62-1.34,6.11,6.11,0,0,0-2.75-.54h-1.82V151.8h1.9a11.23,11.23,0,0,1,3.46.56A9.39,9.39,0,0,1,185.8,154a8.74,8.74,0,0,1,2.2,2.7,7.44,7.44,0,0,1,.83,3.55,9,9,0,0,1-1.37,5.06,8.28,8.28,0,0,1-3.72,3.09Z" transform="translate(0 -16.45)"/><path class="cls-2" d="M196,151.8h4.54l7.37,16.92v6.88h-1.19l-6.18-15.25v18.86H196Zm20.8,0h4.53v27.41h-4.53V160.35l-6.14,15.25h-1.23v-6.8Z" transform="translate(0 -16.45)"/><path class="cls-2" d="M228.3,151.8h4.54v27.41H228.3Zm17.15,0v3.38H234.36V151.8Zm-1.16,15.06h-9.93v-3.05h9.93Zm-9.93,9h11.09v3.38H234.36Z" transform="translate(0 -16.45)"/><rect class="cls-3" y="169.47" width="246.23" height="5.71"/><path class="cls-2" d="M101.53,208.47a12.26,12.26,0,0,1,.48-3.6,8.13,8.13,0,0,1,1.33-2.65,6.25,6.25,0,0,1,2-1.67,6.49,6.49,0,0,1,2.51-.71v2.29a3.68,3.68,0,0,0-1.38.52,3.72,3.72,0,0,0-1.14,1.16,6.1,6.1,0,0,0-.77,1.92,12.71,12.71,0,0,0,0,5.49,6.48,6.48,0,0,0,.77,1.93,3.79,3.79,0,0,0,1.15,1.2,3.45,3.45,0,0,0,1.37.5v2.25a6.3,6.3,0,0,1-2.51-.69,6.12,6.12,0,0,1-2-1.67,8.19,8.19,0,0,1-1.33-2.66A12.33,12.33,0,0,1,101.53,208.47Zm9.59-5.12a3.76,3.76,0,0,0-1.1-.9,3.32,3.32,0,0,0-1.25-.34v-2.27a6.09,6.09,0,0,1,4.2,1.81Zm-2.35,11.5a3.4,3.4,0,0,0,1.26-.37,3.27,3.27,0,0,0,1.09-.87l1.85,1.68a6.4,6.4,0,0,1-1.9,1.31,6.62,6.62,0,0,1-2.3.52Z" transform="translate(0 -16.45)"/><path class="cls-2" d="M116.88,200.09h2.72V217h-2.72Zm10.29,0v2.09h-6.65v-2.09Zm-.69,9.3h-6V207.5h6Z" transform="translate(0 -16.45)"/><path class="cls-2" d="M130,200.09h2.73l4.42,10.45v4.24h-.72l-3.7-9.41V217H130Zm12.49,0h2.72V217H142.5V205.37l-3.69,9.41h-.74v-4.2Z" transform="translate(0 -16.45)"/><path class="cls-2" d="M149,208.47a12.26,12.26,0,0,1,.48-3.6,7.94,7.94,0,0,1,1.33-2.65,6.14,6.14,0,0,1,2-1.67,6.39,6.39,0,0,1,2.51-.71v2.29a3.79,3.79,0,0,0-1.39.52,3.59,3.59,0,0,0-1.13,1.16,5.87,5.87,0,0,0-.77,1.92,12.31,12.31,0,0,0,0,5.49,6.22,6.22,0,0,0,.77,1.93,3.69,3.69,0,0,0,1.15,1.2,3.35,3.35,0,0,0,1.37.5v2.25a6.21,6.21,0,0,1-2.51-.69,6,6,0,0,1-2-1.67,8,8,0,0,1-1.33-2.66A12.33,12.33,0,0,1,149,208.47Zm9.58-5.12a3.73,3.73,0,0,0-1.09-.9,3.37,3.37,0,0,0-1.25-.34v-2.27a6.09,6.09,0,0,1,4.19,1.81Zm-2.34,11.5a3.52,3.52,0,0,0,1.26-.37,3.35,3.35,0,0,0,1.08-.87l1.85,1.68a6.23,6.23,0,0,1-1.89,1.31,6.62,6.62,0,0,1-2.3.52Z" transform="translate(0 -16.45)"/><g class="cls-4"><line class="cls-5" x1="44.05" y1="92.7" x2="73.71" y2="119.62"/><line class="cls-5" x1="191.11" y1="103.71" x2="73.71" y2="119.62"/><line class="cls-5" x1="19.41" y1="110.55" x2="44.55" y2="92.78"/><line class="cls-5" x1="57.41" y1="69.55" x2="73.71" y2="119.62"/><line class="cls-5" x1="44.05" y1="92.7" x2="66.41" y2="97.55"/><line class="cls-5" x1="56.41" y1="68.55" x2="114.2" y2="113.49"/><line class="cls-5" x1="73.71" y1="119.62" x2="90.63" y2="94.81"/><line class="cls-5" x1="223.95" y1="68.9" x2="219.78" y2="77.48"/><line class="cls-5" x1="219.73" y1="77.55" x2="189.89" y2="103.84"/><line class="cls-5" x1="144.63" y1="60.42" x2="189.89" y2="103.84"/><line class="cls-5" x1="154.88" y1="70.26" x2="219.73" y2="77.55"/><line class="cls-5" x1="114.2" y1="113.49" x2="148.43" y2="64.4"/><line class="cls-5" x1="58.41" y1="69.55" x2="148.36" y2="64.88"/><line class="cls-5" x1="144.63" y1="60.42" x2="128.39" y2="67.75"/><line class="cls-5" x1="57.41" y1="69.55" x2="81.41" y2="3.55"/><line class="cls-5" x1="144.63" y1="60.42" x2="81.41" y2="3.55"/><line class="cls-5" x1="90.63" y1="94.81" x2="81.41" y2="2.55"/><line class="cls-5" x1="114.2" y1="113.49" x2="129.97" y2="67.01"/><line class="cls-5" x1="90.63" y1="94.81" x2="129.97" y2="67.01"/><line class="cls-5" x1="81.41" y1="3.55" x2="129.97" y2="67.01"/><line class="cls-5" x1="154.88" y1="70.26" x2="191.76" y2="42.58"/><line class="cls-5" x1="223.95" y1="68.9" x2="191.76" y2="42.58"/><line class="cls-5" x1="144.63" y1="60.42" x2="191.76" y2="42.58"/><line class="cls-5" x1="223.95" y1="68.9" x2="229.33" y2="33.07"/><line class="cls-5" x1="191.76" y1="42.58" x2="229.81" y2="33.14"/><line class="cls-5" x1="19.41" y1="110.55" x2="73.71" y2="119.62"/><line class="cls-5" x1="148.84" y1="64.95" x2="152.56" y2="108.5"/><line class="cls-5" x1="74" y1="119.57" x2="84.37" y2="138.48"/><line class="cls-5" x1="114.26" y1="114.08" x2="84.37" y2="138.48"/><line class="cls-5" x1="95.35" y1="129.33" x2="111.21" y2="145.8"/><line class="cls-5" x1="152.69" y1="108.59" x2="111.21" y2="145.8"/><line class="cls-5" x1="114.26" y1="113.47" x2="111.21" y2="145.8"/><line class="cls-5" x1="131.95" y1="148.24" x2="114.26" y2="113.47"/><line class="cls-5" x1="152.69" y1="108.59" x2="131.95" y2="148.24"/><circle class="cls-3" cx="229.49" cy="33.03" r="4.15"/><circle class="cls-3" cx="223.7" cy="68.57" r="3.18"/><circle class="cls-3" cx="191.88" cy="42.63" r="2.5"/><circle class="cls-3" cx="189.92" cy="102.98" r="3.95"/><circle class="cls-3" cx="129.97" cy="67.2" r="2.99"/><circle class="cls-3" cx="155.59" cy="70.25" r="2.99"/><circle class="cls-3" cx="91.15" cy="94.64" r="1.85"/><circle class="cls-3" cx="44.8" cy="93.25" r="1.85"/><circle class="cls-3" cx="144.63" cy="60.42" r="3.59"/><circle class="cls-3" cx="56.63" cy="69.42" r="3.59"/><circle class="cls-3" cx="20.63" cy="110.42" r="3.59"/><circle class="cls-3" cx="148.8" cy="64.93" r="1.85"/><circle class="cls-3" cx="73.85" cy="119.66" r="2.99"/><circle class="cls-3" cx="114.55" cy="113.95" r="3.95"/><circle class="cls-3" cx="82.5" cy="4.91" r="4.91"/><circle class="cls-3" cx="152.32" cy="109.32" r="2.32"/><line class="cls-5" x1="84.37" y1="138.48" x2="111.21" y2="145.8"/></g></g></g></svg>