<svg xmlns="http://www.w3.org/2000/svg" xmlns:xlink="http://www.w3.org/1999/xlink" viewBox="0 0 257.63 194.1"><defs><style>.cls-1,.cls-5{fill:none;}.cls-2{fill:#0e0f2d;}.cls-3{fill:#c45d00;}.cls-4{clip-path:url(#clip-path);}.cls-5{stroke:#000;stroke-miterlimit:10;stroke-width:2px;}</style><clipPath id="clip-path" transform="translate(0 -16.45)"><rect class="cls-1" x="0.22" width="258.02" height="142.73"/></clipPath></defs><title>logo-global</title><g id="Calque_2" data-name="Calque 2"><g id="Calque_1-2" data-name="Calque 1"><path class="cls-2" d="M0,151.63H4.29V178H0Zm7.58,0a10.87,10.87,0,0,1,3.32.53,9.1,9.1,0,0,1,2.95,1.61A8.56,8.56,0,0,1,16,156.36a7.16,7.16,0,0,1,.8,3.42,9.16,9.16,0,0,1-.68,3.62,7.55,7.55,0,0,1-1.89,2.74,8.42,8.42,0,0,1-2.93,1.71,11.16,11.16,0,0,1-3.79.61H5.75v-3.14H8.22a4.74,4.74,0,0,0,1.56-.27,3.92,3.92,0,0,0,1.41-.88,4.2,4.2,0,0,0,1-1.7,7.74,7.74,0,0,0,.4-2.69,7.23,7.23,0,0,0-.18-1.49,4.47,4.47,0,0,0-.73-1.61,4.27,4.27,0,0,0-1.56-1.28,5.71,5.71,0,0,0-2.64-.52H5.75v-3.25Z" transform="translate(0 -16.45)"/><path class="cls-2" d="M26.06,151.63v23.09H38.17V178H21.7V151.63Z" transform="translate(0 -16.45)"/><path class="cls-2" d="M64.12,178H59.69l-6.83-19.73L46,178H41.5l9.22-26.31H55Zm-8.9-8.37,1,2.9H49.43l1-2.9Z" transform="translate(0 -16.45)"/><path class="cls-2" d="M88.24,151.63v2.93H80.38V178H76.06V154.56H68.19v-2.93Z" transform="translate(0 -16.45)"/><path class="cls-2" d="M93.46,151.63h4.36V178H93.46Zm16.48,0v3.25H99.29v-3.25Zm-1.11,14.47H99.29v-2.93h9.54Zm-9.54,8.62h10.65V178H99.29Z" transform="translate(0 -16.45)"/><path class="cls-2" d="M115.91,151.63h4.36V178h-4.36Zm16.47,0v3.25H121.73v-3.25Zm-1.1,14.47h-9.55v-2.93h9.55Z" transform="translate(0 -16.45)"/><path class="cls-2" d="M136.39,164.67a18.61,18.61,0,0,1,.77-5.63,12.28,12.28,0,0,1,2.14-4.14,9.58,9.58,0,0,1,3.25-2.61,10.94,10.94,0,0,1,4.09-1.06v3.58a5.79,5.79,0,0,0-2.28.75,5.36,5.36,0,0,0-1.86,1.79,9.48,9.48,0,0,0-1.25,3,19,19,0,0,0,0,8.66,10,10,0,0,0,1.27,3,5.71,5.71,0,0,0,1.87,1.83,5.39,5.39,0,0,0,2.25.74v3.54a11,11,0,0,1-4.07-1.06,9.43,9.43,0,0,1-3.27-2.61,12.29,12.29,0,0,1-2.14-4.16A18.79,18.79,0,0,1,136.39,164.67Zm11.68-13.44a10.29,10.29,0,0,1,4.06,1,9.66,9.66,0,0,1,3.25,2.63,12.49,12.49,0,0,1,2.16,4.14,20.53,20.53,0,0,1,0,11.28,12.5,12.5,0,0,1-2.16,4.16,9.39,9.39,0,0,1-3.23,2.61,10.79,10.79,0,0,1-4.08,1.06v-3.54a5.87,5.87,0,0,0,2.29-.77,5.56,5.56,0,0,0,1.86-1.82,10.1,10.1,0,0,0,1.25-3,19.09,19.09,0,0,0,0-8.68,9.65,9.65,0,0,0-1.27-3,5.81,5.81,0,0,0-1.87-1.83,5.51,5.51,0,0,0-2.26-.73Z" transform="translate(0 -16.45)"/><path class="cls-2" d="M164.3,151.63h4.29V178H164.3ZM182.17,178h-4.54l-5-9.55-.23,0a1.84,1.84,0,0,1-.37,0h-2v-3.14h2.43a4.86,4.86,0,0,0,1.58-.27,3.91,3.91,0,0,0,1.43-.88,4.2,4.2,0,0,0,1-1.7,7.74,7.74,0,0,0,.4-2.69,7.23,7.23,0,0,0-.18-1.49,4.33,4.33,0,0,0-.74-1.61,4.23,4.23,0,0,0-1.55-1.28,5.71,5.71,0,0,0-2.64-.52h-1.76v-3.25h1.83a10.87,10.87,0,0,1,3.32.53,9.1,9.1,0,0,1,3,1.61,8.56,8.56,0,0,1,2.11,2.59,7.28,7.28,0,0,1,.8,3.42,8.66,8.66,0,0,1-1.32,4.86,7.91,7.91,0,0,1-3.57,3Z" transform="translate(0 -16.45)"/><path class="cls-2" d="M188,151.63h4.36l7.08,16.26v6.61h-1.15l-5.93-14.65V178H188Zm20,0h4.36V178h-4.36V159.85L202,174.5h-1.18V168Z" transform="translate(0 -16.45)"/><path class="cls-2" d="M219,151.63h4.36V178H219Zm16.48,0v3.25H224.81v-3.25Zm-1.11,14.47h-9.54v-2.93h9.54Zm-9.54,8.62h10.65V178H224.81Z" transform="translate(0 -16.45)"/><path class="cls-2" d="M241.68,173.14a7.44,7.44,0,0,0,1.27.56c.51.17,1,.34,1.59.5a16.11,16.11,0,0,0,1.64.37,8.61,8.61,0,0,0,1.54.15h.11v3.39h-.08c-.57,0-1.16,0-1.76-.09a15.15,15.15,0,0,1-1.85-.3,10.4,10.4,0,0,1-1.76-.59,5.78,5.78,0,0,1-1.45-.91Zm-.57-14.58a7,7,0,0,1,2-5,6.82,6.82,0,0,1,2.15-1.5,8.84,8.84,0,0,1,2.59-.73v3.75a4,4,0,0,0-1.9,1.37,3.36,3.36,0,0,0,0,4.24,7.09,7.09,0,0,0,1.9,1.5v4.08c-.79-.39-1.58-.8-2.36-1.24a11.54,11.54,0,0,1-2.15-1.55,7.93,7.93,0,0,1-1.59-2.08A6,6,0,0,1,241.11,158.56Zm12.33-2.86a2,2,0,0,1-.43-.25,3,3,0,0,0-.72-.34,6.31,6.31,0,0,0-1.18-.27,8.79,8.79,0,0,0-1.82,0V151.2a18.61,18.61,0,0,1,3.2.34,7.55,7.55,0,0,1,2.63.94c-.15.31-.31.65-.5,1l-.54,1c-.17.32-.31.59-.43.8A3.38,3.38,0,0,1,253.44,155.7Zm-4.15,7.18c.79.36,1.59.74,2.41,1.15a10.12,10.12,0,0,1,2.24,1.48,7.26,7.26,0,0,1,1.64,2.13,7.21,7.21,0,0,1,.16,5.61,7.29,7.29,0,0,1-1.36,2.2,7.57,7.57,0,0,1-2.16,1.66,8.59,8.59,0,0,1-2.93.89v-3.43a3.57,3.57,0,0,0,2.93-3.89,2.81,2.81,0,0,0-.82-2.08,9.5,9.5,0,0,0-2.11-1.53Z" transform="translate(0 -16.45)"/><path d="M105.2,210.44h-2.62V194.18h2.62Z" transform="translate(0 -16.45)"/><path d="M111.55,202a16.71,16.71,0,0,0,.22,2.88,6.61,6.61,0,0,0,.62,1.94,3,3,0,0,0,1,1.14,2.8,2.8,0,0,0,1.28.44v2.18a5.8,5.8,0,0,1-2.38-.65,5.08,5.08,0,0,1-1.79-1.61,8.46,8.46,0,0,1-1.14-2.57,13.59,13.59,0,0,1-.4-3.48v-8.06h2.61Zm9.68-7.79v8.06a13.59,13.59,0,0,1-.4,3.48,8.23,8.23,0,0,1-1.15,2.57,5.17,5.17,0,0,1-1.79,1.61,5.75,5.75,0,0,1-2.36.65v-2.18a3.07,3.07,0,0,0,1.27-.45,3,3,0,0,0,1-1.12,6.72,6.72,0,0,0,.63-1.93,15.68,15.68,0,0,0,.23-2.9v-7.79Z" transform="translate(0 -16.45)"/><path d="M136.13,194.18V196h-4.72v14.45h-2.6V196h-4.72v-1.81Z" transform="translate(0 -16.45)"/><path class="cls-3" d="M144.48,210.44h-2.62V198l-2.17,2.23-1.85-1.9,4-4.13h2.62Z" transform="translate(0 -16.45)"/><rect class="cls-3" x="0.22" y="166.71" width="257.41" height="5.49"/><g class="cls-4"><line class="cls-5" x1="44.08" y1="92.7" x2="73.74" y2="119.62"/><line class="cls-5" x1="191.14" y1="103.71" x2="73.74" y2="119.62"/><line class="cls-5" x1="19.44" y1="110.55" x2="44.58" y2="92.78"/><line class="cls-5" x1="57.44" y1="69.55" x2="73.74" y2="119.62"/><line class="cls-5" x1="44.08" y1="92.7" x2="66.44" y2="97.55"/><line class="cls-5" x1="56.44" y1="68.55" x2="114.23" y2="113.49"/><line class="cls-5" x1="73.74" y1="119.62" x2="90.65" y2="94.81"/><line class="cls-5" x1="223.98" y1="68.9" x2="219.81" y2="77.48"/><line class="cls-5" x1="219.76" y1="77.55" x2="189.92" y2="103.84"/><line class="cls-5" x1="144.66" y1="60.42" x2="189.92" y2="103.84"/><line class="cls-5" x1="154.91" y1="70.26" x2="219.76" y2="77.55"/><line class="cls-5" x1="114.23" y1="113.49" x2="148.46" y2="64.4"/><line class="cls-5" x1="58.44" y1="69.55" x2="148.39" y2="64.88"/><line class="cls-5" x1="144.66" y1="60.42" x2="128.42" y2="67.75"/><line class="cls-5" x1="57.44" y1="69.55" x2="81.44" y2="3.55"/><line class="cls-5" x1="144.66" y1="60.42" x2="81.44" y2="3.55"/><line class="cls-5" x1="90.65" y1="94.81" x2="81.44" y2="2.55"/><line class="cls-5" x1="114.23" y1="113.49" x2="130" y2="67.01"/><line class="cls-5" x1="90.65" y1="94.81" x2="130" y2="67.01"/><line class="cls-5" x1="81.44" y1="3.55" x2="130" y2="67.01"/><line class="cls-5" x1="154.91" y1="70.26" x2="191.79" y2="42.58"/><line class="cls-5" x1="223.98" y1="68.9" x2="191.79" y2="42.58"/><line class="cls-5" x1="144.66" y1="60.42" x2="191.79" y2="42.58"/><line class="cls-5" x1="223.98" y1="68.9" x2="229.36" y2="33.07"/><line class="cls-5" x1="191.79" y1="42.58" x2="229.84" y2="33.14"/><line class="cls-5" x1="19.44" y1="110.55" x2="73.74" y2="119.62"/><line class="cls-5" x1="148.87" y1="64.95" x2="152.59" y2="108.5"/><line class="cls-5" x1="74.03" y1="119.57" x2="84.4" y2="138.48"/><line class="cls-5" x1="114.29" y1="114.08" x2="84.4" y2="138.48"/><line class="cls-5" x1="95.38" y1="129.33" x2="111.24" y2="145.8"/><line class="cls-5" x1="152.72" y1="108.59" x2="111.24" y2="145.8"/><line class="cls-5" x1="114.29" y1="113.47" x2="111.24" y2="145.8"/><line class="cls-5" x1="131.98" y1="148.24" x2="114.29" y2="113.47"/><line class="cls-5" x1="152.72" y1="108.59" x2="131.98" y2="148.24"/><circle class="cls-3" cx="229.52" cy="33.03" r="4.15"/><circle class="cls-3" cx="223.73" cy="68.57" r="3.18"/><circle class="cls-3" cx="191.91" cy="42.63" r="2.5"/><circle class="cls-3" cx="189.95" cy="102.98" r="3.95"/><circle class="cls-3" cx="130" cy="67.2" r="2.99"/><circle class="cls-3" cx="155.62" cy="70.25" r="2.99"/><circle class="cls-3" cx="91.18" cy="94.64" r="1.85"/><circle class="cls-3" cx="44.83" cy="93.25" r="1.85"/><circle class="cls-3" cx="144.66" cy="60.42" r="3.59"/><circle class="cls-3" cx="56.66" cy="69.42" r="3.59"/><circle class="cls-3" cx="20.66" cy="110.42" r="3.59"/><circle class="cls-3" cx="148.83" cy="64.93" r="1.85"/><circle class="cls-3" cx="73.88" cy="119.66" r="2.99"/><circle class="cls-3" cx="114.57" cy="113.95" r="3.95"/><circle class="cls-3" cx="82.53" cy="4.91" r="4.91"/><circle class="cls-3" cx="152.35" cy="109.32" r="2.32"/><line class="cls-5" x1="84.4" y1="138.48" x2="111.24" y2="145.8"/></g></g></g></svg>