<svg xmlns="http://www.w3.org/2000/svg" xmlns:xlink="http://www.w3.org/1999/xlink" viewBox="0 0 246.24 198.91"><defs><style>.cls-1,.cls-5{fill:none;}.cls-2{fill:#fff;}.cls-3{fill:#f3ac72;}.cls-4{clip-path:url(#clip-path);}.cls-5{stroke:#fff;stroke-miterlimit:10;stroke-width:2px;}</style><clipPath id="clip-path" transform="translate(0 -16.45)"><rect class="cls-1" x="0.86" width="258.02" height="142.73"/></clipPath></defs><title>logo-gccd-light</title><g id="Calque_2" data-name="Calque 2"><g id="Calque_1-2" data-name="Calque 1"><path class="cls-2" d="M.4,151.25H4.87v27.41H.4Zm7.89,0a11.17,11.17,0,0,1,3.46.55,9.47,9.47,0,0,1,3.07,1.68A8.82,8.82,0,0,1,17,156.17a7.48,7.48,0,0,1,.84,3.56,9.7,9.7,0,0,1-.71,3.77,8,8,0,0,1-2,2.85,8.77,8.77,0,0,1-3.05,1.78,11.75,11.75,0,0,1-3.94.64H6.39v-3.28H9a4.85,4.85,0,0,0,1.62-.28,4.09,4.09,0,0,0,1.47-.91,4.5,4.5,0,0,0,1.07-1.76,8.21,8.21,0,0,0,.41-2.81,7.85,7.85,0,0,0-.18-1.55,4.56,4.56,0,0,0-.76-1.67A4.62,4.62,0,0,0,11,155.17a6,6,0,0,0-2.75-.54H6.39v-3.38Z" transform="translate(0 -16.45)"/><path class="cls-2" d="M27.52,151.25v24H40.13v3.39H23V151.25Z" transform="translate(0 -16.45)"/><path class="cls-2" d="M67.13,178.66H62.52l-7.1-20.53-7.18,20.53H43.59l9.59-27.38h4.43ZM57.87,170,59,173h-7.1l1-3Z" transform="translate(0 -16.45)"/><path class="cls-2" d="M92.24,151.25v3.05H84.06v24.36h-4.5V154.3H71.37v-3.05Z" transform="translate(0 -16.45)"/><path class="cls-2" d="M97.67,151.25h4.54v27.41H97.67Zm17.15,0v3.38H103.73v-3.38Zm-1.16,15.06h-9.93v-3.05h9.93Zm-9.93,9h11.09v3.39H103.73Z" transform="translate(0 -16.45)"/><path class="cls-2" d="M121,151.25h4.54v27.41H121Zm17.15,0v3.38H127.09v-3.38ZM137,166.31h-9.93v-3.05H137Z" transform="translate(0 -16.45)"/><path class="cls-2" d="M142.34,164.82a19.73,19.73,0,0,1,.8-5.86,13,13,0,0,1,2.23-4.31,10,10,0,0,1,3.39-2.72,11.35,11.35,0,0,1,4.26-1.09v3.72a6.24,6.24,0,0,0-2.38.78,5.71,5.71,0,0,0-1.94,1.86,10.25,10.25,0,0,0-1.3,3.12,19.82,19.82,0,0,0,0,9,10.21,10.21,0,0,0,1.32,3.14,5.93,5.93,0,0,0,1.95,1.92,5.65,5.65,0,0,0,2.35.76v3.68a11.21,11.21,0,0,1-4.24-1.09,9.81,9.81,0,0,1-3.41-2.72,12.83,12.83,0,0,1-2.23-4.33A19.86,19.86,0,0,1,142.34,164.82Zm12.16-14a10.46,10.46,0,0,1,4.23,1.08,10,10,0,0,1,3.38,2.73,13.43,13.43,0,0,1,2.25,4.31,21.42,21.42,0,0,1,0,11.74,13.23,13.23,0,0,1-2.25,4.33,9.86,9.86,0,0,1-3.37,2.72,11,11,0,0,1-4.24,1.09v-3.68a6,6,0,0,0,2.38-.8,5.81,5.81,0,0,0,1.94-1.89,10.53,10.53,0,0,0,1.3-3.13,19.9,19.9,0,0,0,0-9,10,10,0,0,0-1.32-3.12,6.17,6.17,0,0,0-2-1.9,5.65,5.65,0,0,0-2.35-.76Z" transform="translate(0 -16.45)"/><path class="cls-2" d="M171.39,151.25h4.46v27.41h-4.46ZM190,178.66h-4.72l-5.17-9.93a1.1,1.1,0,0,0-.25,0l-.39,0h-2.08v-3.28h2.53a5,5,0,0,0,1.64-.28,4,4,0,0,0,1.48-.91,4.4,4.4,0,0,0,1.08-1.76,8.47,8.47,0,0,0,.41-2.81,7.85,7.85,0,0,0-.18-1.55,4.44,4.44,0,0,0-2.39-3,6,6,0,0,0-2.75-.54h-1.82v-3.38h1.9a11.17,11.17,0,0,1,3.46.55,9.32,9.32,0,0,1,3.06,1.68,8.7,8.7,0,0,1,2.2,2.69,7.48,7.48,0,0,1,.84,3.56,9,9,0,0,1-1.38,5.06,8.32,8.32,0,0,1-3.72,3.08Z" transform="translate(0 -16.45)"/><path class="cls-2" d="M196,151.25h4.54l7.37,16.92v6.88h-1.19l-6.18-15.25v18.86H196Zm20.8,0h4.53v27.41h-4.53V159.8l-6.14,15.25h-1.23v-6.81Z" transform="translate(0 -16.45)"/><path class="cls-2" d="M228.3,151.25h4.54v27.41H228.3Zm17.15,0v3.38H234.36v-3.38Zm-1.16,15.06h-9.93v-3.05h9.93Zm-9.93,9h11.09v3.39H234.36Z" transform="translate(0 -16.45)"/><rect class="cls-3" y="168.91" width="246.24" height="5.71"/><path class="cls-2" d="M23.72,199.55h2.62v15.71H23.72Zm12.06,0v15.71H33.2v-7.08h-6v-1.75h6v-6.88Z" transform="translate(0 -16.45)"/><path class="cls-2" d="M52.77,215.26H50.1L46,203.49l-4.15,11.77H39.16l5.54-15.69h2.56Zm-5.36-5L48,212H43.93l.6-1.73Z" transform="translate(0 -16.45)"/><path class="cls-2" d="M58.75,199.55v13.77H66v1.94H56.12V199.55Z" transform="translate(0 -16.45)"/><path class="cls-2" d="M71.31,199.55v13.77H78.6v1.94H68.68V199.55Z" transform="translate(0 -16.45)"/><path class="cls-2" d="M81.28,199.55h2.63v15.71H81.28Zm9.92,0v1.94H84.79v-1.94Zm-.67,8.63H84.79v-1.75h5.74Zm-5.74,5.14H91.2v1.94H84.79Z" transform="translate(0 -16.45)"/><path class="cls-2" d="M100.83,212.38a3.78,3.78,0,0,0,.77.33c.3.11.62.21,1,.3a8.79,8.79,0,0,0,1,.22,5.21,5.21,0,0,0,.93.09h.06v2h0a9.81,9.81,0,0,1-1.07-.05,7.53,7.53,0,0,1-1.11-.18,5.49,5.49,0,0,1-1.06-.35,3.15,3.15,0,0,1-.87-.55Zm-.34-8.7a4.3,4.3,0,0,1,.32-1.68,4.22,4.22,0,0,1,.87-1.31,4.16,4.16,0,0,1,1.29-.9,6,6,0,0,1,1.56-.44v2.24a2.4,2.4,0,0,0-1.14.82,2,2,0,0,0,0,2.53,4.37,4.37,0,0,0,1.14.9v2.43c-.47-.23-1-.48-1.42-.74a6.61,6.61,0,0,1-1.29-.93,4.44,4.44,0,0,1-1-1.23A3.54,3.54,0,0,1,100.49,203.68Zm7.42-1.7a1.21,1.21,0,0,1-.26-.15,2.15,2.15,0,0,0-.43-.21,5.52,5.52,0,0,0-.71-.16,6.35,6.35,0,0,0-1.1,0v-2.15a11.82,11.82,0,0,1,1.93.2,4.35,4.35,0,0,1,1.58.57l-.3.61-.33.61c-.1.2-.18.36-.25.48Zm-2.5,4.28c.48.22,1,.44,1.45.68a6.32,6.32,0,0,1,1.35.89,4.3,4.3,0,0,1,1,1.27,4.09,4.09,0,0,1,.38,1.85,3.92,3.92,0,0,1-.29,1.5,4.35,4.35,0,0,1-.81,1.31,4.81,4.81,0,0,1-1.3,1,5.16,5.16,0,0,1-1.77.53v-2.05a2.13,2.13,0,0,0,1.77-2.32,1.68,1.68,0,0,0-.5-1.24,5.69,5.69,0,0,0-1.27-.91Z" transform="translate(0 -16.45)"/><path class="cls-2" d="M123.45,199.55v1.74h-4.73v14h-2.6v-14h-4.73v-1.74Z" transform="translate(0 -16.45)"/><path class="cls-2" d="M126.49,199.55h2.58v15.71h-2.58Zm10.75,15.71h-2.73l-3-5.69H130v-1.88h1.46a2.87,2.87,0,0,0,1-.16,2.34,2.34,0,0,0,.86-.52,2.68,2.68,0,0,0,.62-1,4.71,4.71,0,0,0,.24-1.61,4.48,4.48,0,0,0-.11-.89,2.48,2.48,0,0,0-1.38-1.72,3.43,3.43,0,0,0-1.59-.31H130v-1.94H131a6.2,6.2,0,0,1,2,.32,5.29,5.29,0,0,1,1.78,1,5,5,0,0,1,1.27,1.54,4.3,4.3,0,0,1,.48,2,5.14,5.14,0,0,1-.79,2.9,4.91,4.91,0,0,1-2.15,1.77Z" transform="translate(0 -16.45)"/><path class="cls-2" d="M143.13,207.07a14.62,14.62,0,0,0,.22,2.78,6.18,6.18,0,0,0,.62,1.88,3,3,0,0,0,1,1.1,2.91,2.91,0,0,0,1.28.43v2.11a6.12,6.12,0,0,1-2.38-.63,5,5,0,0,1-1.79-1.56,7.58,7.58,0,0,1-1.14-2.48,12.35,12.35,0,0,1-.41-3.37v-7.78h2.62Zm9.7-7.52v7.78a12.75,12.75,0,0,1-.41,3.37,7.59,7.59,0,0,1-1.15,2.48,5.16,5.16,0,0,1-1.8,1.56,6,6,0,0,1-2.36.63v-2.11a3.25,3.25,0,0,0,1.28-.44,3,3,0,0,0,1-1.08,6.31,6.31,0,0,0,.63-1.86,14.8,14.8,0,0,0,.23-2.81v-7.52Z" transform="translate(0 -16.45)"/><path class="cls-2" d="M156.29,207.33a11,11,0,0,1,.46-3.35,7.48,7.48,0,0,1,1.28-2.45A5.88,5.88,0,0,1,160,200a6.49,6.49,0,0,1,2.42-.66v2.13a3.78,3.78,0,0,0-1.34.48A3.5,3.5,0,0,0,160,203a5.52,5.52,0,0,0-.75,1.78,11.4,11.4,0,0,0,0,5.11,5.78,5.78,0,0,0,.75,1.79,3.33,3.33,0,0,0,2.43,1.58v2.08a6.11,6.11,0,0,1-2.42-.63,5.88,5.88,0,0,1-1.93-1.56,7.53,7.53,0,0,1-1.28-2.46A11.14,11.14,0,0,1,156.29,207.33Zm9.23-4.76a3.53,3.53,0,0,0-1.06-.83,3.24,3.24,0,0,0-1.2-.32v-2.11a6,6,0,0,1,4,1.69Zm-2.26,10.69a3.59,3.59,0,0,0,1.21-.35,3.3,3.3,0,0,0,1.05-.81l1.78,1.56a5.87,5.87,0,0,1-1.83,1.22,6.8,6.8,0,0,1-2.21.49Z" transform="translate(0 -16.45)"/><path class="cls-2" d="M182.18,199.55v1.74h-4.73v14h-2.6v-14h-4.73v-1.74Z" transform="translate(0 -16.45)"/><path class="cls-2" d="M187.67,207.07a15.59,15.59,0,0,0,.21,2.78,6.18,6.18,0,0,0,.62,1.88,3,3,0,0,0,1,1.1,3,3,0,0,0,1.28.43v2.11a6.11,6.11,0,0,1-2.37-.63,5.07,5.07,0,0,1-1.8-1.56,7.58,7.58,0,0,1-1.14-2.48,12.75,12.75,0,0,1-.41-3.37v-7.78h2.63Zm9.69-7.52v7.78a12.77,12.77,0,0,1-.4,3.37,7.8,7.8,0,0,1-1.15,2.48,5.24,5.24,0,0,1-1.8,1.56,6,6,0,0,1-2.37.63v-2.11a3.19,3.19,0,0,0,1.28-.44,2.88,2.88,0,0,0,1-1.08,6.3,6.3,0,0,0,.64-1.86,14.89,14.89,0,0,0,.22-2.81v-7.52Z" transform="translate(0 -16.45)"/><path class="cls-2" d="M201.06,199.55h2.58v15.71h-2.58Zm10.75,15.71h-2.73l-3-5.69h-1.58v-1.88H206a2.81,2.81,0,0,0,.94-.16,2.19,2.19,0,0,0,.86-.52,2.57,2.57,0,0,0,.63-1,5,5,0,0,0,.23-1.61,4.4,4.4,0,0,0-.1-.89,2.76,2.76,0,0,0-.44-1,2.67,2.67,0,0,0-.94-.76,3.43,3.43,0,0,0-1.59-.31h-1.06v-1.94h1.1a6.25,6.25,0,0,1,2,.32,5.39,5.39,0,0,1,1.78,1,5,5,0,0,1,1.26,1.54,4.19,4.19,0,0,1,.49,2,5.14,5.14,0,0,1-.8,2.9,4.85,4.85,0,0,1-2.15,1.77Z" transform="translate(0 -16.45)"/><path class="cls-2" d="M215.36,199.55H218v15.71h-2.63Zm9.92,0v1.94h-6.41v-1.94Zm-.67,8.63h-5.74v-1.75h5.74Zm-5.74,5.14h6.41v1.94h-6.41Z" transform="translate(0 -16.45)"/><g class="cls-4"><line class="cls-5" x1="44.72" y1="92.7" x2="74.38" y2="119.62"/><line class="cls-5" x1="191.78" y1="103.71" x2="74.38" y2="119.62"/><line class="cls-5" x1="20.08" y1="110.55" x2="45.21" y2="92.78"/><line class="cls-5" x1="58.08" y1="69.55" x2="74.38" y2="119.62"/><line class="cls-5" x1="44.72" y1="92.7" x2="67.08" y2="97.55"/><line class="cls-5" x1="57.08" y1="68.55" x2="114.87" y2="113.49"/><line class="cls-5" x1="74.38" y1="119.62" x2="91.29" y2="94.81"/><line class="cls-5" x1="224.62" y1="68.9" x2="220.45" y2="77.48"/><line class="cls-5" x1="220.39" y1="77.55" x2="190.56" y2="103.84"/><line class="cls-5" x1="145.3" y1="60.42" x2="190.56" y2="103.84"/><line class="cls-5" x1="155.55" y1="70.26" x2="220.39" y2="77.55"/><line class="cls-5" x1="114.87" y1="113.49" x2="149.1" y2="64.4"/><line class="cls-5" x1="59.08" y1="69.55" x2="149.03" y2="64.88"/><line class="cls-5" x1="145.3" y1="60.42" x2="129.06" y2="67.75"/><line class="cls-5" x1="58.08" y1="69.55" x2="82.08" y2="3.55"/><line class="cls-5" x1="145.3" y1="60.42" x2="82.08" y2="3.55"/><line class="cls-5" x1="91.29" y1="94.81" x2="82.08" y2="2.55"/><line class="cls-5" x1="114.87" y1="113.49" x2="130.64" y2="67.01"/><line class="cls-5" x1="91.29" y1="94.81" x2="130.64" y2="67.01"/><line class="cls-5" x1="82.08" y1="3.55" x2="130.64" y2="67.01"/><line class="cls-5" x1="155.55" y1="70.26" x2="192.43" y2="42.58"/><line class="cls-5" x1="224.62" y1="68.9" x2="192.43" y2="42.58"/><line class="cls-5" x1="145.3" y1="60.42" x2="192.43" y2="42.58"/><line class="cls-5" x1="224.62" y1="68.9" x2="230" y2="33.07"/><line class="cls-5" x1="192.43" y1="42.58" x2="230.48" y2="33.14"/><line class="cls-5" x1="20.08" y1="110.55" x2="74.38" y2="119.62"/><line class="cls-5" x1="149.5" y1="64.95" x2="153.23" y2="108.5"/><line class="cls-5" x1="74.67" y1="119.57" x2="85.04" y2="138.48"/><line class="cls-5" x1="114.93" y1="114.08" x2="85.04" y2="138.48"/><line class="cls-5" x1="96.02" y1="129.33" x2="111.88" y2="145.8"/><line class="cls-5" x1="153.36" y1="108.59" x2="111.88" y2="145.8"/><line class="cls-5" x1="114.93" y1="113.47" x2="111.88" y2="145.8"/><line class="cls-5" x1="132.62" y1="148.24" x2="114.93" y2="113.47"/><line class="cls-5" x1="153.36" y1="108.59" x2="132.62" y2="148.24"/><circle class="cls-3" cx="230.16" cy="33.03" r="4.15"/><circle class="cls-3" cx="224.37" cy="68.57" r="3.18"/><circle class="cls-3" cx="192.55" cy="42.63" r="2.5"/><circle class="cls-3" cx="190.59" cy="102.98" r="3.95"/><circle class="cls-3" cx="130.64" cy="67.2" r="2.99"/><circle class="cls-3" cx="156.26" cy="70.25" r="2.99"/><circle class="cls-3" cx="91.82" cy="94.64" r="1.85"/><circle class="cls-3" cx="45.47" cy="93.25" r="1.85"/><circle class="cls-3" cx="145.3" cy="60.42" r="3.59"/><circle class="cls-3" cx="57.3" cy="69.42" r="3.59"/><circle class="cls-3" cx="21.3" cy="110.42" r="3.59"/><circle class="cls-3" cx="149.47" cy="64.93" r="1.85"/><circle class="cls-3" cx="74.52" cy="119.66" r="2.99"/><circle class="cls-3" cx="115.21" cy="113.95" r="3.95"/><circle class="cls-3" cx="83.17" cy="4.91" r="4.91"/><circle class="cls-3" cx="152.99" cy="109.32" r="2.32"/><line class="cls-5" x1="85.04" y1="138.48" x2="111.88" y2="145.8"/></g></g></g></svg>