<svg xmlns="http://www.w3.org/2000/svg" xmlns:xlink="http://www.w3.org/1999/xlink" viewBox="0 0 245.84 201.04"><defs><style>.cls-1,.cls-5{fill:none;}.cls-2{fill:#fff;}.cls-3{fill:#73c399;}.cls-4{clip-path:url(#clip-path);}.cls-5{stroke:#fff;stroke-miterlimit:10;stroke-width:2px;}</style><clipPath id="clip-path" transform="translate(0 -16.45)"><rect class="cls-1" x="0.14" width="258.02" height="142.73"/></clipPath></defs><title>logo-gte-light</title><g id="Calque_2" data-name="Calque 2"><g id="Calque_1-2" data-name="Calque 1"><path class="cls-2" d="M.4,152H4.87v27.41H.4Zm7.89,0a10.89,10.89,0,0,1,3.46.56,9.44,9.44,0,0,1,3.07,1.67,8.74,8.74,0,0,1,2.19,2.7,7.42,7.42,0,0,1,.84,3.55,9.67,9.67,0,0,1-.71,3.77,8,8,0,0,1-2,2.85,8.77,8.77,0,0,1-3.05,1.78,11.51,11.51,0,0,1-3.94.64H6.39v-3.28H9a4.85,4.85,0,0,0,1.62-.28,4,4,0,0,0,1.47-.91,4.5,4.5,0,0,0,1.07-1.76,8.21,8.21,0,0,0,.41-2.81,7.68,7.68,0,0,0-.18-1.54,4.53,4.53,0,0,0-.76-1.68A4.62,4.62,0,0,0,11,155.92a6,6,0,0,0-2.75-.54H6.39V152Z" transform="translate(0 -16.45)"/><path class="cls-2" d="M27.52,152v24H40.13v3.38H23V152Z" transform="translate(0 -16.45)"/><path class="cls-2" d="M67.13,179.41H62.52l-7.1-20.53-7.18,20.53H43.59L53.18,152h4.43Zm-9.26-8.7,1.08,3h-7.1l1-3Z" transform="translate(0 -16.45)"/><path class="cls-2" d="M92.24,152v3.05H84.06v24.36h-4.5V155.05H71.37V152Z" transform="translate(0 -16.45)"/><path class="cls-2" d="M97.67,152h4.54v27.41H97.67Zm17.15,0v3.38H103.73V152Zm-1.16,15.06h-9.93V164h9.93Zm-9.93,9h11.09v3.38H103.73Z" transform="translate(0 -16.45)"/><path class="cls-2" d="M121,152h4.54v27.41H121Zm17.15,0v3.38H127.09V152ZM137,167.06h-9.93V164H137Z" transform="translate(0 -16.45)"/><path class="cls-2" d="M142.34,165.57a19.61,19.61,0,0,1,.8-5.85,13,13,0,0,1,2.23-4.32,9.9,9.9,0,0,1,3.39-2.71,11.18,11.18,0,0,1,4.26-1.1v3.72a6.24,6.24,0,0,0-2.38.78A5.71,5.71,0,0,0,148.7,158a10.25,10.25,0,0,0-1.3,3.12,19.82,19.82,0,0,0,0,9,10.27,10.27,0,0,0,1.32,3.15,6,6,0,0,0,1.95,1.91,5.51,5.51,0,0,0,2.35.76v3.69a11.41,11.41,0,0,1-4.24-1.1,9.81,9.81,0,0,1-3.41-2.72,12.83,12.83,0,0,1-2.23-4.33A19.86,19.86,0,0,1,142.34,165.57Zm12.16-14a10.46,10.46,0,0,1,4.23,1.08,10,10,0,0,1,3.38,2.73,13.38,13.38,0,0,1,2.25,4.32,19,19,0,0,1,.82,5.85,19.2,19.2,0,0,1-.82,5.88,13.23,13.23,0,0,1-2.25,4.33,9.86,9.86,0,0,1-3.37,2.72,11.21,11.21,0,0,1-4.24,1.1v-3.69a5.8,5.8,0,0,0,4.32-2.69,10.42,10.42,0,0,0,1.3-3.13,19.86,19.86,0,0,0,0-9,9.94,9.94,0,0,0-1.32-3.13,6.17,6.17,0,0,0-2-1.9,5.8,5.8,0,0,0-2.35-.76Z" transform="translate(0 -16.45)"/><path class="cls-2" d="M171.39,152h4.46v27.41h-4.46ZM190,179.41h-4.73l-5.16-9.93-.25,0-.39,0h-2.08v-3.28h2.53a5,5,0,0,0,1.64-.28,3.84,3.84,0,0,0,1.48-.91,4.4,4.4,0,0,0,1.08-1.76,8.47,8.47,0,0,0,.41-2.81,7.68,7.68,0,0,0-.18-1.54,4.4,4.4,0,0,0-.77-1.68,4.45,4.45,0,0,0-1.62-1.34,6,6,0,0,0-2.75-.54h-1.82V152h1.9a10.89,10.89,0,0,1,3.46.56,9.29,9.29,0,0,1,3.06,1.67,8.63,8.63,0,0,1,2.2,2.7,7.42,7.42,0,0,1,.84,3.55,9,9,0,0,1-1.38,5.06,8.19,8.19,0,0,1-3.72,3.08Z" transform="translate(0 -16.45)"/><path class="cls-2" d="M196,152h4.54l7.37,16.92v6.88h-1.19l-6.18-15.25v18.86H196Zm20.8,0h4.53v27.41h-4.53V160.55l-6.14,15.25h-1.23V169Z" transform="translate(0 -16.45)"/><path class="cls-2" d="M228.3,152h4.54v27.41H228.3Zm17.15,0v3.38H234.36V152Zm-1.16,15.06h-9.93V164h9.93Zm-9.93,9h11.09v3.38H234.36Z" transform="translate(0 -16.45)"/><rect class="cls-3" y="169.67" width="245.84" height="5.71"/><path class="cls-2" d="M102.9,208.84a12.26,12.26,0,0,1,.48-3.6,8.18,8.18,0,0,1,1.33-2.64,6.15,6.15,0,0,1,2-1.68,6.62,6.62,0,0,1,2.51-.71v2.29a3.68,3.68,0,0,0-1.38.52,3.83,3.83,0,0,0-1.14,1.16,6.06,6.06,0,0,0-.77,1.92,12.75,12.75,0,0,0,0,5.5,6.26,6.26,0,0,0,.77,1.92,3.79,3.79,0,0,0,1.15,1.2,3.45,3.45,0,0,0,1.37.5v2.25a6.41,6.41,0,0,1-2.51-.68,6.15,6.15,0,0,1-2-1.68,8.13,8.13,0,0,1-1.33-2.65A12.45,12.45,0,0,1,102.9,208.84Zm9.58-5.12a3.57,3.57,0,0,0-1.09-.89,3.16,3.16,0,0,0-1.25-.35v-2.27a6.14,6.14,0,0,1,4.2,1.81Zm-2.34,11.5a3.39,3.39,0,0,0,1.26-.36,3.3,3.3,0,0,0,1.08-.88l1.86,1.68a6.22,6.22,0,0,1-1.9,1.31,6.62,6.62,0,0,1-2.3.53Z" transform="translate(0 -16.45)"/><path class="cls-2" d="M118.25,200.46H121v16.92h-2.72Zm10.29,0v2.09h-6.65v-2.09Zm-.69,9.3h-6v-1.88h6Z" transform="translate(0 -16.45)"/><path class="cls-2" d="M131.38,200.46h2.72l4.43,10.45v4.25h-.72l-3.71-9.42v11.64h-2.72Zm12.49,0h2.72v16.92h-2.72V205.74l-3.69,9.42h-.74V211Z" transform="translate(0 -16.45)"/><path class="cls-2" d="M150.41,208.84a12.26,12.26,0,0,1,.48-3.6,8,8,0,0,1,1.33-2.64,6.05,6.05,0,0,1,2-1.68,6.57,6.57,0,0,1,2.51-.71v2.29a3.79,3.79,0,0,0-1.39.52,3.69,3.69,0,0,0-1.13,1.16,6.3,6.3,0,0,0-.78,1.92,12.75,12.75,0,0,0,0,5.5,6.52,6.52,0,0,0,.78,1.92,3.69,3.69,0,0,0,1.15,1.2,3.35,3.35,0,0,0,1.37.5v2.25a6.37,6.37,0,0,1-2.51-.68,6.05,6.05,0,0,1-2-1.68,7.94,7.94,0,0,1-1.33-2.65A12.45,12.45,0,0,1,150.41,208.84Zm9.58-5.12a3.69,3.69,0,0,0-1.09-.89,3.2,3.2,0,0,0-1.26-.35v-2.27a6.14,6.14,0,0,1,4.2,1.81Zm-2.35,11.5A3.35,3.35,0,0,0,160,214l1.85,1.68A6.18,6.18,0,0,1,160,217a6.63,6.63,0,0,1-2.31.53Z" transform="translate(0 -16.45)"/><g class="cls-4"><line class="cls-5" x1="44" y1="92.7" x2="73.66" y2="119.62"/><line class="cls-5" x1="191.06" y1="103.71" x2="73.66" y2="119.62"/><line class="cls-5" x1="19.36" y1="110.55" x2="44.49" y2="92.78"/><line class="cls-5" x1="57.36" y1="69.55" x2="73.66" y2="119.62"/><line class="cls-5" x1="44" y1="92.7" x2="66.36" y2="97.55"/><line class="cls-5" x1="56.36" y1="68.55" x2="114.15" y2="113.49"/><line class="cls-5" x1="73.66" y1="119.62" x2="90.57" y2="94.81"/><line class="cls-5" x1="223.9" y1="68.9" x2="219.73" y2="77.48"/><line class="cls-5" x1="219.67" y1="77.55" x2="189.84" y2="103.84"/><line class="cls-5" x1="144.58" y1="60.42" x2="189.84" y2="103.84"/><line class="cls-5" x1="154.82" y1="70.26" x2="219.67" y2="77.55"/><line class="cls-5" x1="114.15" y1="113.49" x2="148.38" y2="64.4"/><line class="cls-5" x1="58.36" y1="69.55" x2="148.3" y2="64.88"/><line class="cls-5" x1="144.58" y1="60.42" x2="128.34" y2="67.75"/><line class="cls-5" x1="57.36" y1="69.55" x2="81.36" y2="3.55"/><line class="cls-5" x1="144.58" y1="60.42" x2="81.36" y2="3.55"/><line class="cls-5" x1="90.57" y1="94.81" x2="81.36" y2="2.55"/><line class="cls-5" x1="114.15" y1="113.49" x2="129.91" y2="67.01"/><line class="cls-5" x1="90.57" y1="94.81" x2="129.91" y2="67.01"/><line class="cls-5" x1="81.36" y1="3.55" x2="129.91" y2="67.01"/><line class="cls-5" x1="154.82" y1="70.26" x2="191.71" y2="42.58"/><line class="cls-5" x1="223.9" y1="68.9" x2="191.71" y2="42.58"/><line class="cls-5" x1="144.58" y1="60.42" x2="191.71" y2="42.58"/><line class="cls-5" x1="223.9" y1="68.9" x2="229.28" y2="33.07"/><line class="cls-5" x1="191.71" y1="42.58" x2="229.75" y2="33.14"/><line class="cls-5" x1="19.36" y1="110.55" x2="73.66" y2="119.62"/><line class="cls-5" x1="148.78" y1="64.95" x2="152.51" y2="108.5"/><line class="cls-5" x1="73.95" y1="119.57" x2="84.32" y2="138.48"/><line class="cls-5" x1="114.2" y1="114.08" x2="84.32" y2="138.48"/><line class="cls-5" x1="95.29" y1="129.33" x2="111.15" y2="145.8"/><line class="cls-5" x1="152.63" y1="108.59" x2="111.15" y2="145.8"/><line class="cls-5" x1="114.2" y1="113.47" x2="111.15" y2="145.8"/><line class="cls-5" x1="131.89" y1="148.24" x2="114.2" y2="113.47"/><line class="cls-5" x1="152.63" y1="108.59" x2="131.89" y2="148.24"/><circle class="cls-3" cx="229.43" cy="33.03" r="4.15"/><circle class="cls-3" cx="223.65" cy="68.57" r="3.18"/><circle class="cls-3" cx="191.82" cy="42.63" r="2.5"/><circle class="cls-3" cx="189.87" cy="102.98" r="3.95"/><circle class="cls-3" cx="129.92" cy="67.2" r="2.99"/><circle class="cls-3" cx="155.54" cy="70.25" r="2.99"/><circle class="cls-3" cx="91.1" cy="94.64" r="1.85"/><circle class="cls-3" cx="44.75" cy="93.25" r="1.85"/><circle class="cls-3" cx="144.58" cy="60.42" r="3.59"/><circle class="cls-3" cx="56.58" cy="69.42" r="3.59"/><circle class="cls-3" cx="20.58" cy="110.42" r="3.59"/><circle class="cls-3" cx="148.75" cy="64.93" r="1.85"/><circle class="cls-3" cx="73.8" cy="119.66" r="2.99"/><circle class="cls-3" cx="114.49" cy="113.95" r="3.95"/><circle class="cls-3" cx="82.45" cy="4.91" r="4.91"/><circle class="cls-3" cx="152.27" cy="109.32" r="2.32"/><line class="cls-5" x1="84.32" y1="138.48" x2="111.15" y2="145.8"/></g></g></g></svg>