<!-- Generator: Adobe Illustrator 24.0.2, SVG Export Plug-In  -->
<svg version="1.1" xmlns="http://www.w3.org/2000/svg" xmlns:xlink="http://www.w3.org/1999/xlink" x="0px" y="0px"
     height="28px" viewBox="0 0 63.9 118.9" style="enable-background:new 0 0 63.9 118.9;" xml:space="preserve">
<style type="text/css">
	.st0{fill:none;stroke:#ee8415;stroke-width:2;stroke-miterlimit:10;}
</style>
    <defs>
</defs>
    <g>
	<polygon class="st0" points="48,68.9 15.9,68.9 1.1,42.6 15.9,16.4 48,16.4 62.8,42.6 	"/>
        <circle class="st0" cx="32" cy="42.6" r="10.4"/>
        <rect x="19" y="1" class="st0" width="6" height="15.4"/>
        <rect x="39" y="1" class="st0" width="6" height="15.4"/>
        <path class="st0" d="M27.1,68.9v15.3c0,0-0.3,2.9,3.1,3.1s11.4,0.3,13,11.9c0,0,0.4,10.8-11.9,11.9c0,0-10.8-0.1-11.9-11.9
		c0,0-0.9-3.7-3.8-3.1c-2.9,0.6-3.1,3.1-3.1,3.1s0.4,17.9,18.8,18.8c0,0,17.8,0,18.8-18.8c0,0-0.3-15.4-14.7-18.3l-0.1-12H27.1z"/>
</g>
</svg>
