<!-- Generator: Adobe Illustrator 24.0.2, SVG Export Plug-In  -->
<svg version="1.1" xmlns="http://www.w3.org/2000/svg" xmlns:xlink="http://www.w3.org/1999/xlink" x="0px" y="0px"
     height="28px" viewBox="0 0 61.6 123.7" style="enable-background:new 0 0 61.6 123.7;" xml:space="preserve">
<style type="text/css">
	.st0{fill:none;stroke:#14d1ee;stroke-width:2;stroke-miterlimit:10;}
</style>
    <defs>
</defs>
    <g>
	<g>
		<circle class="st0" cx="40.5" cy="102.7" r="20"/>
        <path class="st0" d="M59.7,96.6c3.4,10.5-2.5,21.8-13,25.2s-21.8-2.5-25.2-13L59.7,96.6z"/>
	</g>
        <g>
		<circle class="st0" cx="31" cy="26.4" r="10.3"/>
	</g>
        <g>
		<circle class="st0" cx="8.7" cy="8.7" r="7.7"/>
            <path class="st0" d="M10.9,16.1c4.1-1.2,6.4-5.5,5.2-9.6c-1.2-4.1-5.5-6.4-9.6-5.2"/>
	</g>
        <g>
		<circle class="st0" cx="10.3" cy="37.6" r="6.1"/>
            <path class="st0" d="M12,43.4c3.2-1,5-4.3,4.1-7.6c-1-3.2-4.3-5-7.6-4.1"/>
	</g>
        <rect x="9.2" y="48.9" transform="matrix(0.9606 -0.2779 0.2779 0.9606 -13.7075 9.2005)" class="st0" width="32.9" height="8"/>
        <path class="st0" d="M45.3,82.6l-7-24.6l-20.5,6.2l7.5,25.4C25.3,89.7,33.1,79.9,45.3,82.6z"/>
</g>
</svg>
