<!-- Generator: Adobe Illustrator 24.0.2, SVG Export Plug-In  -->
<svg version="1.1" xmlns="http://www.w3.org/2000/svg" xmlns:xlink="http://www.w3.org/1999/xlink" x="0px" y="0px"
     height="28px" viewBox="0 0 84.5 84.2" style="enable-background:new 0 0 84.5 84.2;" xml:space="preserve">
<style type="text/css">
	.st0{fill:none;stroke:#5040a2;stroke-width:2;stroke-miterlimit:10;}
</style>
    <defs>
</defs>
    <g>
	<path class="st0" d="M64.5,75.9H20.9c-6.6,0-12-5.4-12-12V20.2c0-6.6,5.4-12,12-12h43.7c6.6,0,12,5.4,12,12v43.7
		C76.5,70.5,71.1,75.9,64.5,75.9z"/>
        <line class="st0" x1="42.7" y1="0" x2="42.7" y2="8"/>
        <path class="st0" d="M54.6,0v8c0,13.1,0,13.1,0,13.1"/>
        <line class="st0" x1="30.7" y1="0" x2="30.7" y2="8"/>
        <line class="st0" x1="65.4" y1="0" x2="65.4" y2="8"/>
        <line class="st0" x1="19.4" y1="0" x2="19.4" y2="8"/>
        <line class="st0" x1="42.7" y1="76.2" x2="42.7" y2="84.2"/>
        <line class="st0" x1="54.6" y1="76.2" x2="54.6" y2="84.2"/>
        <line class="st0" x1="30.7" y1="76.2" x2="30.7" y2="84.2"/>
        <line class="st0" x1="65.4" y1="76.2" x2="65.4" y2="84.2"/>
        <line class="st0" x1="19.4" y1="76.2" x2="19.4" y2="84.2"/>
        <line class="st0" x1="0" y1="41.8" x2="8" y2="41.8"/>
        <line class="st0" x1="0.1" y1="29.8" x2="8" y2="29.9"/>
        <line class="st0" x1="0" y1="53.7" x2="8" y2="53.7"/>
        <line class="st0" x1="0.1" y1="19" x2="8" y2="19.1"/>
        <line class="st0" x1="0" y1="65.1" x2="8" y2="65.1"/>
        <line class="st0" x1="76.5" y1="41.8" x2="84.5" y2="41.8"/>
        <line class="st0" x1="76.5" y1="29.8" x2="84.5" y2="29.9"/>
        <line class="st0" x1="76.5" y1="53.7" x2="84.5" y2="53.7"/>
        <line class="st0" x1="76.6" y1="19" x2="84.5" y2="19.1"/>
        <line class="st0" x1="76.5" y1="65.1" x2="84.4" y2="65.1"/>
        <polyline class="st0" points="23.9,75.6 23.9,35.8 30.7,25 	"/>
        <polyline class="st0" points="35.3,75.6 35.3,50 39.3,33.5 	"/>
        <polyline class="st0" points="76.5,27.1 66.6,42.1 57.5,42.1 	"/>
        <polyline class="st0" points="76.5,43.1 66.6,58 57.5,58 	"/>
        <circle class="st0" cx="54.9" cy="58.3" r="3.4"/>
        <circle class="st0" cx="32.2" cy="22.5" r="3.4"/>
        <circle class="st0" cx="40.7" cy="31" r="3.4"/>
        <circle class="st0" cx="54.3" cy="23.6" r="3.4"/>
        <circle class="st0" cx="54.9" cy="41.8" r="3.4"/>
</g>
</svg>
