<!-- Generator: Adobe Illustrator 24.0.2, SVG Export Plug-In  -->
<svg version="1.1" xmlns="http://www.w3.org/2000/svg" xmlns:xlink="http://www.w3.org/1999/xlink" x="0px" y="0px"
     height="28px" viewBox="0 0 96.7 96.7" style="enable-background:new 0 0 96.7 96.7;" xml:space="preserve">
<style type="text/css">
	.st0 {
    fill:none;
    stroke: #D4B723;
    stroke-width:2;
    stroke-miterlimit:10;
    }
</style>
    <defs>
</defs>
    <g>
	<path class="st0" d="M53.4,27.2c-7.2,0-13.1-5.9-13.1-13.1C40.3,6.9,46.2,1,53.4,1s13.1,5.9,13.1,13.1
		C66.6,21.3,60.7,27.2,53.4,27.2z"/>
        <circle class="st0" cx="53.4" cy="14.1" r="6.5"/>
        <path class="st0" d="M20.7,61.4c-7.2,0-13.1-5.9-13.1-13.1c0-7.2,5.9-13.1,13.1-13.1s13.1,5.9,13.1,13.1
		C33.8,55.5,27.9,61.4,20.7,61.4z"/>
        <circle class="st0" cx="20.7" cy="48.3" r="6.5"/>
        <line class="st0" x1="19.6" y1="35.5" x2="40.4" y2="14.8"/>
        <line class="st0" x1="33.4" y1="44.9" x2="51.2" y2="27"/>
        <line class="st0" x1="12.5" y1="58.5" x2="12.5" y2="85.9"/>
        <line class="st0" x1="28.9" y1="58.5" x2="28.9" y2="85.9"/>
        <path class="st0" d="M59,95.7H5.9c-2.7,0-4.9-2.2-4.9-4.9v-0.1c0-2.7,2.2-4.9,4.9-4.9H59c2.7,0,4.9,2.2,4.9,4.9v0.1
		C63.9,93.5,61.7,95.7,59,95.7z"/>
        <path class="st0" d="M78.3,50.2v-2v-6c0-2.9,2.4-5.2,5.2-5.2h1.6c2.9,0,5.2,2.4,5.2,5.2v6v1.9"/>
        <line class="st0" x1="56.5" y1="27.2" x2="78.3" y2="44.2"/>
        <line class="st0" x1="66.3" y1="16.5" x2="85.1" y2="37.1"/>
        <path class="st0" d="M95.7,72.9V55.5c0-2.9-2.4-5.2-5.2-5.2H78.1c-2.9,0-5.2,2.4-5.2,5.2v17.2l6.4-3.4l0.1-12.6H89l0.1,12.4
		L95.7,72.9z"/>
</g>
</svg>
