<!-- Generator: Adobe Illustrator 24.0.2, SVG Export Plug-In  -->
<svg version="1.1" xmlns="http://www.w3.org/2000/svg" xmlns:xlink="http://www.w3.org/1999/xlink" x="0px" y="0px"
     height="28px" viewBox="0 0 85 131.5" style="enable-background:new 0 0 85 131.5;" xml:space="preserve">
<style type="text/css">
	.st0{fill:none;stroke:#00a159;stroke-width:2;stroke-miterlimit:10;}
</style>
    <defs>
</defs>
    <g>
	<g>
		<polygon class="st0" points="20.4,53.6 18.6,75.4 22.2,75.4 		"/>
        <polygon class="st0" points="0.6,87.9 20.4,78.5 18.6,75.5 		"/>
        <polygon class="st0" points="40.2,87.8 22.1,75.4 20.3,78.4 		"/>
        <circle class="st0" cx="20.4" cy="76.4" r="1.7"/>
        <polygon class="st0" points="20.3,76 18.3,112.7 22.4,112.7 		"/>
        <path class="st0" d="M28.5,118.6c0-3.4-3.7-6.2-8.2-6.2s-8.2,2.8-8.2,6.2H28.5z"/>
	</g>
        <g>
		<polygon class="st0" points="44.8,0.1 41.3,43.9 48.4,43.9 		"/>
            <polygon class="st0" points="5.1,68.9 44.8,50.1 41.3,43.9 		"/>
            <polygon class="st0" points="84.4,68.8 48.2,43.8 44.7,49.9 		"/>
            <circle class="st0" cx="44.9" cy="45.9" r="3.5"/>
            <polygon class="st0" points="44.7,45 40.6,118.6 48.8,118.6 		"/>
            <path class="st0" d="M61,130.5c0-6.9-7.3-12.5-16.4-12.5s-16.4,5.6-16.4,12.5H61z"/>
	</g>
</g>
</svg>
