<svg xmlns="http://www.w3.org/2000/svg" xmlns:xlink="http://www.w3.org/1999/xlink" viewBox="0 0 257.81 194.1"><defs><style>.cls-1,.cls-5{fill:none;}.cls-2{fill:#fff;}.cls-3{fill:#c45d00;}.cls-4{clip-path:url(#clip-path);}.cls-5{stroke:#fff;stroke-miterlimit:10;stroke-width:2px;}</style><clipPath id="clip-path" transform="translate(0 -16.45)"><rect class="cls-1" x="0.4" width="258.02" height="142.73"/></clipPath></defs><title>logo-global-light</title><g id="Calque_2" data-name="Calque 2"><g id="Calque_1-2" data-name="Calque 1"><path class="cls-2" d="M.33,150.05l4.29.06-.33,26.33L0,176.39Zm7.58.1a10.25,10.25,0,0,1,3.31.58,8.89,8.89,0,0,1,2.93,1.64A8.58,8.58,0,0,1,16.23,155a7.29,7.29,0,0,1,.76,3.42,9.31,9.31,0,0,1-.73,3.62,7.62,7.62,0,0,1-1.92,2.71,8.5,8.5,0,0,1-3,1.68,11.17,11.17,0,0,1-3.79.56l-1.72,0,0-3.15,2.47,0a4.47,4.47,0,0,0,1.56-.25,4,4,0,0,0,1.42-.85,4.42,4.42,0,0,0,1.06-1.69,8,8,0,0,0,.42-2.69,7.08,7.08,0,0,0-.16-1.49,4.19,4.19,0,0,0-.71-1.61A4.26,4.26,0,0,0,10.43,154a5.76,5.76,0,0,0-2.64-.55l-1.75,0,0-3.26Z" transform="translate(0 -16.45)"/><path class="cls-2" d="M26.38,150.38l-.29,23.08,12.12.16,0,3.25-16.48-.21L22,150.32Z" transform="translate(0 -16.45)"/><path class="cls-2" d="M64.11,177.19l-4.43-.06L53.1,157.32,46,177l-4.47-.05L51,150.72l4.25.05Zm-8.79-8.47,1,2.9-6.82-.08,1-2.88Z" transform="translate(0 -16.45)"/><path class="cls-2" d="M88.57,151.15l0,2.93-7.86-.1-.29,23.41-4.33,0,.29-23.41-7.86-.1,0-2.93Z" transform="translate(0 -16.45)"/><path class="cls-2" d="M93.78,151.22l4.36.05-.33,26.34-4.35-.05Zm5.54,23.16,10.65.13,0,3.25-10.65-.13Zm9.65-8.5-9.54-.12,0-2.93L109,163Zm1.29-14.46,0,3.25-10.65-.13,0-3.25Z" transform="translate(0 -16.45)"/><path class="cls-2" d="M116.23,151.5l4.36.05-.33,26.34-4.36,0Zm15.18,14.66-9.54-.12,0-2.93,9.54.12Zm1.29-14.46,0,3.25L122,154.82l0-3.25Z" transform="translate(0 -16.45)"/><path class="cls-2" d="M136.54,164.8a19,19,0,0,1,.84-5.62,12.17,12.17,0,0,1,2.2-4.12,9.44,9.44,0,0,1,3.28-2.57,10.8,10.8,0,0,1,4.11-1l-.05,3.57a6.13,6.13,0,0,0-2.29.72,5.65,5.65,0,0,0-1.89,1.77,9.69,9.69,0,0,0-1.28,3,18.75,18.75,0,0,0-.56,4.32,18.29,18.29,0,0,0,.45,4.35,9.75,9.75,0,0,0,1.23,3,5.86,5.86,0,0,0,1.85,1.86,5.33,5.33,0,0,0,2.24.76l0,3.54a10.94,10.94,0,0,1-4.06-1.11,9.36,9.36,0,0,1-3.24-2.65,12.38,12.38,0,0,1-2.09-4.19A18.88,18.88,0,0,1,136.54,164.8Zm11.86-13.3a10.41,10.41,0,0,1,4,1.09,9.8,9.8,0,0,1,3.22,2.67,12.77,12.77,0,0,1,2.11,4.17,20.79,20.79,0,0,1-.14,11.28,12.8,12.8,0,0,1-2.22,4.13,9.56,9.56,0,0,1-3.26,2.57,10.66,10.66,0,0,1-4.09,1l0-3.53a5.87,5.87,0,0,0,2.3-.74,5.63,5.63,0,0,0,1.88-1.8,9.73,9.73,0,0,0,1.29-3,19.27,19.27,0,0,0,.11-8.68,10,10,0,0,0-1.23-3,5.85,5.85,0,0,0-1.86-1.85,5.43,5.43,0,0,0-2.24-.76Z" transform="translate(0 -16.45)"/><path class="cls-2" d="M164.62,152.1l4.28.05-.32,26.34-4.29-.05Zm17.54,26.56-4.54-.06-4.85-9.6-.23,0h-1.11l-1.27,0,0-3.14,2.43,0a4.77,4.77,0,0,0,1.57-.25,3.82,3.82,0,0,0,1.44-.86,4.22,4.22,0,0,0,1.06-1.68,7.93,7.93,0,0,0,.43-2.69,7.82,7.82,0,0,0-.16-1.49,4.3,4.3,0,0,0-.71-1.62,4.43,4.43,0,0,0-1.54-1.3,5.69,5.69,0,0,0-2.64-.55l-1.75,0,0-3.25,1.82,0a10.58,10.58,0,0,1,3.32.57,8.92,8.92,0,0,1,2.93,1.65,8.37,8.37,0,0,1,2.07,2.61,7.07,7.07,0,0,1,.76,3.43,8.57,8.57,0,0,1-1.38,4.84,7.92,7.92,0,0,1-3.61,2.92Z" transform="translate(0 -16.45)"/><path class="cls-2" d="M188.27,152.4l4.36,0,6.88,16.35-.09,6.61h-1.14l-5.75-14.73-.22,18.12-4.36-.06Zm20,.24,4.36.06L212.28,179l-4.36-.06.23-18.12-6.08,14.58h-1.18l.08-6.54Z" transform="translate(0 -16.45)"/><path class="cls-2" d="M219.29,152.78l4.36.06-.32,26.33-4.36,0Zm5.54,23.16,10.65.13,0,3.26-10.65-.14Zm9.65-8.49-9.54-.12,0-2.93,9.54.12ZM235.77,153l0,3.25-10.65-.13,0-3.26Z" transform="translate(0 -16.45)"/><path class="cls-2" d="M241.72,174.58a8.54,8.54,0,0,0,1.26.57c.51.18,1,.36,1.59.52a16.06,16.06,0,0,0,1.63.39,8.73,8.73,0,0,0,1.54.17h.11l0,3.39h-.07c-.57,0-1.16,0-1.77-.11a15.34,15.34,0,0,1-1.83-.33,9.14,9.14,0,0,1-1.76-.61,5.25,5.25,0,0,1-1.44-.93ZM241.33,160a7,7,0,0,1,.57-2.82,7.31,7.31,0,0,1,1.48-2.18,6.78,6.78,0,0,1,2.16-1.47,9.18,9.18,0,0,1,2.6-.7l0,3.75a4,4,0,0,0-1.91,1.35,3.37,3.37,0,0,0-.05,4.24,7,7,0,0,0,1.87,1.52l-.05,4.08q-1.17-.58-2.34-1.26a11.15,11.15,0,0,1-2.13-1.59,7.87,7.87,0,0,1-1.56-2.09A5.94,5.94,0,0,1,241.33,160Zm8.13,4.43c.78.36,1.58.76,2.4,1.17a10.66,10.66,0,0,1,2.21,1.51,7.12,7.12,0,0,1,1.62,2.15,7.34,7.34,0,0,1,.09,5.61A7.33,7.33,0,0,1,254.4,177a7.62,7.62,0,0,1-2.19,1.64,8.62,8.62,0,0,1-2.94.85l0-3.43a3.57,3.57,0,0,0,3-3.86,2.82,2.82,0,0,0-.79-2.08,9.4,9.4,0,0,0-2.09-1.56Zm4.24-7.14a1.67,1.67,0,0,1-.43-.25,2.92,2.92,0,0,0-.71-.35,7.11,7.11,0,0,0-1.18-.28,8.5,8.5,0,0,0-1.82-.06l0-3.61a19.79,19.79,0,0,1,3.2.38,7.34,7.34,0,0,1,2.61,1c-.14.31-.31.65-.51,1s-.38.71-.55,1-.32.59-.44.8A3.91,3.91,0,0,1,253.7,157.28Z" transform="translate(0 -16.45)"/><path class="cls-2" d="M105.38,210.44h-2.61V194.18h2.61Z" transform="translate(0 -16.45)"/><path class="cls-2" d="M111.74,202a16.82,16.82,0,0,0,.21,2.88,6.61,6.61,0,0,0,.62,1.94,3.1,3.1,0,0,0,1,1.14,2.8,2.8,0,0,0,1.28.44v2.18a5.71,5.71,0,0,1-2.37-.65,5,5,0,0,1-1.8-1.61,8.22,8.22,0,0,1-1.13-2.57,13.14,13.14,0,0,1-.41-3.48v-8.06h2.62Zm9.68-7.79v8.06a13.57,13.57,0,0,1-.41,3.48,8,8,0,0,1-1.15,2.57,5.08,5.08,0,0,1-1.79,1.61,5.71,5.71,0,0,1-2.36.65v-2.18a3.07,3.07,0,0,0,1.27-.45,3,3,0,0,0,1-1.12,6.72,6.72,0,0,0,.63-1.93,15.68,15.68,0,0,0,.23-2.9v-7.79Z" transform="translate(0 -16.45)"/><path class="cls-2" d="M136.31,194.18V196h-4.72v14.45H129V196h-4.72v-1.81Z" transform="translate(0 -16.45)"/><path class="cls-3" d="M144.66,210.44H142V198l-2.17,2.23-1.84-1.9,4-4.13h2.62Z" transform="translate(0 -16.45)"/><rect class="cls-3" x="0.4" y="166.71" width="257.41" height="5.49"/><g class="cls-4"><line class="cls-5" x1="44.26" y1="92.7" x2="73.92" y2="119.62"/><line class="cls-5" x1="191.33" y1="103.71" x2="73.92" y2="119.62"/><line class="cls-5" x1="19.63" y1="110.55" x2="44.76" y2="92.78"/><line class="cls-5" x1="57.63" y1="69.55" x2="73.92" y2="119.62"/><line class="cls-5" x1="44.26" y1="92.7" x2="66.63" y2="97.55"/><line class="cls-5" x1="56.63" y1="68.55" x2="114.41" y2="113.49"/><line class="cls-5" x1="73.92" y1="119.62" x2="90.84" y2="94.81"/><line class="cls-5" x1="224.17" y1="68.9" x2="219.99" y2="77.48"/><line class="cls-5" x1="219.94" y1="77.55" x2="190.1" y2="103.84"/><line class="cls-5" x1="144.84" y1="60.42" x2="190.1" y2="103.84"/><line class="cls-5" x1="155.09" y1="70.26" x2="219.94" y2="77.55"/><line class="cls-5" x1="114.41" y1="113.49" x2="148.64" y2="64.4"/><line class="cls-5" x1="58.63" y1="69.55" x2="148.57" y2="64.88"/><line class="cls-5" x1="144.84" y1="60.42" x2="128.6" y2="67.75"/><line class="cls-5" x1="57.63" y1="69.55" x2="81.63" y2="3.55"/><line class="cls-5" x1="144.84" y1="60.42" x2="81.63" y2="3.55"/><line class="cls-5" x1="90.84" y1="94.81" x2="81.63" y2="2.55"/><line class="cls-5" x1="114.41" y1="113.49" x2="130.18" y2="67.01"/><line class="cls-5" x1="90.84" y1="94.81" x2="130.18" y2="67.01"/><line class="cls-5" x1="81.63" y1="3.55" x2="130.18" y2="67.01"/><line class="cls-5" x1="155.09" y1="70.26" x2="191.97" y2="42.58"/><line class="cls-5" x1="224.17" y1="68.9" x2="191.97" y2="42.58"/><line class="cls-5" x1="144.84" y1="60.42" x2="191.97" y2="42.58"/><line class="cls-5" x1="224.17" y1="68.9" x2="229.54" y2="33.07"/><line class="cls-5" x1="191.97" y1="42.58" x2="230.02" y2="33.14"/><line class="cls-5" x1="19.63" y1="110.55" x2="73.92" y2="119.62"/><line class="cls-5" x1="149.05" y1="64.95" x2="152.77" y2="108.5"/><line class="cls-5" x1="74.21" y1="119.57" x2="84.58" y2="138.48"/><line class="cls-5" x1="114.47" y1="114.08" x2="84.58" y2="138.48"/><line class="cls-5" x1="95.56" y1="129.33" x2="111.42" y2="145.8"/><line class="cls-5" x1="152.9" y1="108.59" x2="111.42" y2="145.8"/><line class="cls-5" x1="114.47" y1="113.47" x2="111.42" y2="145.8"/><line class="cls-5" x1="132.16" y1="148.24" x2="114.47" y2="113.47"/><line class="cls-5" x1="152.9" y1="108.59" x2="132.16" y2="148.24"/><circle class="cls-3" cx="229.7" cy="33.03" r="4.15"/><circle class="cls-3" cx="223.91" cy="68.57" r="3.18"/><circle class="cls-3" cx="192.09" cy="42.63" r="2.5"/><circle class="cls-3" cx="190.13" cy="102.98" r="3.95"/><circle class="cls-3" cx="130.18" cy="67.2" r="2.99"/><circle class="cls-3" cx="155.8" cy="70.25" r="2.99"/><circle class="cls-3" cx="91.36" cy="94.64" r="1.85"/><circle class="cls-3" cx="45.01" cy="93.25" r="1.85"/><circle class="cls-3" cx="144.84" cy="60.42" r="3.59"/><circle class="cls-3" cx="56.84" cy="69.42" r="3.59"/><circle class="cls-3" cx="20.84" cy="110.42" r="3.59"/><circle class="cls-3" cx="149.01" cy="64.93" r="1.85"/><circle class="cls-3" cx="74.06" cy="119.66" r="2.99"/><circle class="cls-3" cx="114.76" cy="113.95" r="3.95"/><circle class="cls-3" cx="82.72" cy="4.91" r="4.91"/><circle class="cls-3" cx="152.53" cy="109.32" r="2.32"/><line class="cls-5" x1="84.58" y1="138.48" x2="111.42" y2="145.8"/></g></g></g></svg>