<svg xmlns="http://www.w3.org/2000/svg" xmlns:xlink="http://www.w3.org/1999/xlink" viewBox="0 0 246.14 200.79"><defs><style>.cls-1,.cls-5{fill:none;}.cls-2{fill:#fff;}.cls-3{fill:#f7c906;}.cls-4{clip-path:url(#clip-path);}.cls-5{stroke:#fff;stroke-miterlimit:10;stroke-width:2px;}</style><clipPath id="clip-path" transform="translate(0 -16.45)"><rect class="cls-1" x="0.06" width="258.02" height="142.73"/></clipPath></defs><title>logo-gmp-light</title><g id="Calque_2" data-name="Calque 2"><g id="Calque_1-2" data-name="Calque 1"><path class="cls-2" d="M.4,152.31H4.87v27.42H.4Zm7.89,0a11.18,11.18,0,0,1,3.46.56,9.28,9.28,0,0,1,3.07,1.68A8.82,8.82,0,0,1,17,157.24a7.47,7.47,0,0,1,.84,3.55,9.76,9.76,0,0,1-.71,3.78,8,8,0,0,1-2,2.85,8.92,8.92,0,0,1-3.05,1.78,11.76,11.76,0,0,1-3.94.63H6.39v-3.27H9a4.85,4.85,0,0,0,1.62-.28,4.09,4.09,0,0,0,1.47-.91,4.47,4.47,0,0,0,1.07-1.77,8.14,8.14,0,0,0,.41-2.81,7.76,7.76,0,0,0-.18-1.54,4.39,4.39,0,0,0-2.38-3,6,6,0,0,0-2.75-.54H6.39v-3.39Z" transform="translate(0 -16.45)"/><path class="cls-2" d="M27.52,152.31v24H40.13v3.39H23V152.31Z" transform="translate(0 -16.45)"/><path class="cls-2" d="M67.13,179.73H62.52l-7.1-20.53-7.18,20.53H43.59l9.59-27.38h4.43ZM57.87,171,59,174H51.84l1-3Z" transform="translate(0 -16.45)"/><path class="cls-2" d="M92.24,152.31v3.05H84.06v24.37h-4.5V155.36H71.37v-3.05Z" transform="translate(0 -16.45)"/><path class="cls-2" d="M97.67,152.31h4.54v27.42H97.67Zm17.15,0v3.39H103.73v-3.39Zm-1.16,15.07h-9.93v-3h9.93Zm-9.93,9h11.09v3.39H103.73Z" transform="translate(0 -16.45)"/><path class="cls-2" d="M121,152.31h4.54v27.42H121Zm17.15,0v3.39H127.09v-3.39ZM137,167.38h-9.93v-3H137Z" transform="translate(0 -16.45)"/><path class="cls-2" d="M142.34,165.89a19.68,19.68,0,0,1,.8-5.86,12.92,12.92,0,0,1,2.23-4.31,9.93,9.93,0,0,1,3.39-2.72,11.17,11.17,0,0,1,4.26-1.09v3.71a6.09,6.09,0,0,0-2.38.79,5.71,5.71,0,0,0-1.94,1.86,10.14,10.14,0,0,0-1.3,3.12,19.82,19.82,0,0,0,0,9,10.21,10.21,0,0,0,1.32,3.14,5.93,5.93,0,0,0,1.95,1.92,5.65,5.65,0,0,0,2.35.76v3.68a11.4,11.4,0,0,1-4.24-1.09,9.93,9.93,0,0,1-3.41-2.72,12.93,12.93,0,0,1-2.23-4.33A19.86,19.86,0,0,1,142.34,165.89Zm12.16-14a10.62,10.62,0,0,1,4.23,1.07,10.1,10.1,0,0,1,3.38,2.74,13.33,13.33,0,0,1,2.25,4.31,21.42,21.42,0,0,1,0,11.74,13.33,13.33,0,0,1-2.25,4.33,10,10,0,0,1-3.37,2.72,11.2,11.2,0,0,1-4.24,1.09v-3.68a6,6,0,0,0,2.38-.8,5.75,5.75,0,0,0,1.94-1.9,10.47,10.47,0,0,0,1.3-3.12,19.9,19.9,0,0,0,0-9,10,10,0,0,0-1.32-3.12,6.06,6.06,0,0,0-2-1.9,5.65,5.65,0,0,0-2.35-.76Z" transform="translate(0 -16.45)"/><path class="cls-2" d="M171.39,152.31h4.46v27.42h-4.46ZM190,179.73h-4.73l-5.17-9.93a1.06,1.06,0,0,0-.24,0h-2.47v-3.27h2.53a5,5,0,0,0,1.64-.28,4,4,0,0,0,1.48-.91,4.37,4.37,0,0,0,1.08-1.77,8.38,8.38,0,0,0,.41-2.81,7.76,7.76,0,0,0-.18-1.54,4.43,4.43,0,0,0-.77-1.67,4.35,4.35,0,0,0-1.62-1.34,6,6,0,0,0-2.75-.54h-1.82v-3.39h1.9a11.23,11.23,0,0,1,3.46.56,9.14,9.14,0,0,1,3.06,1.68,8.7,8.7,0,0,1,2.2,2.69,7.47,7.47,0,0,1,.84,3.55,9,9,0,0,1-1.38,5.06,8.28,8.28,0,0,1-3.72,3.09Z" transform="translate(0 -16.45)"/><path class="cls-2" d="M196,152.31h4.54l7.37,16.93v6.88h-1.19l-6.18-15.25v18.86H196Zm20.8,0h4.53v27.42h-4.53V160.87l-6.14,15.25h-1.23v-6.81Z" transform="translate(0 -16.45)"/><path class="cls-2" d="M228.3,152.31h4.54v27.42H228.3Zm17.15,0v3.39H234.36v-3.39Zm-1.16,15.07h-9.93v-3h9.93Zm-9.93,9h11.09v3.39H234.36Z" transform="translate(0 -16.45)"/><rect class="cls-3" y="169.98" width="246.14" height="5.71"/><path class="cls-2" d="M85.94,214.06a4.61,4.61,0,0,0,.79.35c.32.12.66.22,1,.32a9.05,9.05,0,0,0,1,.24,4.75,4.75,0,0,0,1,.1h.06v2.18h0a10.6,10.6,0,0,1-1.11-.06,7.92,7.92,0,0,1-1.15-.2,5.93,5.93,0,0,1-1.1-.37,3.66,3.66,0,0,1-.91-.59Zm-.36-9.37a4.8,4.8,0,0,1,.34-1.82,4.71,4.71,0,0,1,.9-1.41,4.44,4.44,0,0,1,1.34-1,5.79,5.79,0,0,1,1.62-.47v2.41a2.49,2.49,0,0,0-1.18.88,2.2,2.2,0,0,0,0,2.72,4.57,4.57,0,0,0,1.18,1v2.61c-.49-.24-1-.5-1.47-.79a6.59,6.59,0,0,1-1.34-1,4.86,4.86,0,0,1-1-1.33A3.78,3.78,0,0,1,85.58,204.69Zm7.71-1.84a1.43,1.43,0,0,1-.27-.16,1.88,1.88,0,0,0-.45-.22,5.35,5.35,0,0,0-.73-.17,5.9,5.9,0,0,0-1.14,0V200a12.74,12.74,0,0,1,2,.22,4.43,4.43,0,0,1,1.64.61c-.09.2-.19.41-.31.65l-.34.67c-.1.2-.19.38-.27.51A1.66,1.66,0,0,1,93.29,202.85Zm-2.59,4.62,1.51.73a6.44,6.44,0,0,1,1.39,1,4.7,4.7,0,0,1,1,1.37,4.82,4.82,0,0,1,.1,3.6,4.55,4.55,0,0,1-.85,1.42,4.64,4.64,0,0,1-1.35,1.06,5.11,5.11,0,0,1-1.83.58V215a2.29,2.29,0,0,0,1.83-2.5,1.84,1.84,0,0,0-.51-1.33,6.22,6.22,0,0,0-1.32-1Z" transform="translate(0 -16.45)"/><path class="cls-2" d="M99.7,215.59a1.62,1.62,0,0,1-.47,1.17,1.56,1.56,0,0,1-2.27,0,1.65,1.65,0,0,1-.45-1.17,1.56,1.56,0,0,1,.47-1.16,1.52,1.52,0,0,1,1.11-.47,1.55,1.55,0,0,1,1.14.47A1.6,1.6,0,0,1,99.7,215.59Z" transform="translate(0 -16.45)"/><path class="cls-2" d="M102.45,200.24h2.72l4.42,10.44v4.25h-.71l-3.71-9.41v11.64h-2.72Zm12.48,0h2.73v16.92h-2.73V205.52l-3.68,9.41h-.74v-4.2Z" transform="translate(0 -16.45)"/><path class="cls-2" d="M135.26,217.16h-2.77l-4.27-12.68-4.31,12.68h-2.79l5.76-16.9h2.66Zm-5.56-5.38.64,1.86h-4.26l.62-1.86Z" transform="translate(0 -16.45)"/><path class="cls-2" d="M138.67,200.24h2.68v16.92h-2.68Zm11.17,16.92H147L143.9,211h-1.63v-2h1.52a3.06,3.06,0,0,0,1-.17,2.42,2.42,0,0,0,.89-.57,2.68,2.68,0,0,0,.65-1.09,5.24,5.24,0,0,0,.14-2.68,2.91,2.91,0,0,0-.46-1,2.82,2.82,0,0,0-1-.82,3.57,3.57,0,0,0-1.66-.34h-1.09v-2.08h1.14a6.52,6.52,0,0,1,2.08.34,5.66,5.66,0,0,1,1.84,1,5.55,5.55,0,0,1,1.32,1.67,4.77,4.77,0,0,1,.5,2.19,5.65,5.65,0,0,1-.83,3.12,5,5,0,0,1-2.23,1.91Z" transform="translate(0 -16.45)"/><path class="cls-2" d="M165.07,200.24v1.88h-4.91v15h-2.7v-15h-4.92v-1.88Z" transform="translate(0 -16.45)"/><g class="cls-4"><line class="cls-5" x1="43.91" y1="92.7" x2="73.58" y2="119.62"/><line class="cls-5" x1="190.98" y1="103.71" x2="73.58" y2="119.62"/><line class="cls-5" x1="19.28" y1="110.55" x2="44.41" y2="92.78"/><line class="cls-5" x1="57.28" y1="69.55" x2="73.58" y2="119.62"/><line class="cls-5" x1="43.91" y1="92.7" x2="66.28" y2="97.55"/><line class="cls-5" x1="56.28" y1="68.55" x2="114.06" y2="113.49"/><line class="cls-5" x1="73.58" y1="119.62" x2="90.49" y2="94.81"/><line class="cls-5" x1="223.82" y1="68.9" x2="219.65" y2="77.48"/><line class="cls-5" x1="219.59" y1="77.55" x2="189.75" y2="103.84"/><line class="cls-5" x1="144.49" y1="60.42" x2="189.75" y2="103.84"/><line class="cls-5" x1="154.74" y1="70.26" x2="219.59" y2="77.55"/><line class="cls-5" x1="114.06" y1="113.49" x2="148.29" y2="64.4"/><line class="cls-5" x1="58.28" y1="69.55" x2="148.22" y2="64.88"/><line class="cls-5" x1="144.49" y1="60.42" x2="128.25" y2="67.75"/><line class="cls-5" x1="57.28" y1="69.55" x2="81.28" y2="3.55"/><line class="cls-5" x1="144.49" y1="60.42" x2="81.28" y2="3.55"/><line class="cls-5" x1="90.49" y1="94.81" x2="81.28" y2="2.55"/><line class="cls-5" x1="114.06" y1="113.49" x2="129.83" y2="67.01"/><line class="cls-5" x1="90.49" y1="94.81" x2="129.83" y2="67.01"/><line class="cls-5" x1="81.28" y1="3.55" x2="129.83" y2="67.01"/><line class="cls-5" x1="154.74" y1="70.26" x2="191.62" y2="42.58"/><line class="cls-5" x1="223.82" y1="68.9" x2="191.62" y2="42.58"/><line class="cls-5" x1="144.49" y1="60.42" x2="191.62" y2="42.58"/><line class="cls-5" x1="223.82" y1="68.9" x2="229.19" y2="33.07"/><line class="cls-5" x1="191.62" y1="42.58" x2="229.67" y2="33.14"/><line class="cls-5" x1="19.28" y1="110.55" x2="73.58" y2="119.62"/><line class="cls-5" x1="148.7" y1="64.95" x2="152.42" y2="108.5"/><line class="cls-5" x1="73.86" y1="119.57" x2="84.23" y2="138.48"/><line class="cls-5" x1="114.12" y1="114.08" x2="84.23" y2="138.48"/><line class="cls-5" x1="95.21" y1="129.33" x2="111.07" y2="145.8"/><line class="cls-5" x1="152.55" y1="108.59" x2="111.07" y2="145.8"/><line class="cls-5" x1="114.12" y1="113.47" x2="111.07" y2="145.8"/><line class="cls-5" x1="131.81" y1="148.24" x2="114.12" y2="113.47"/><line class="cls-5" x1="152.55" y1="108.59" x2="131.81" y2="148.24"/><circle class="cls-3" cx="229.35" cy="33.03" r="4.15"/><circle class="cls-3" cx="223.56" cy="68.57" r="3.18"/><circle class="cls-3" cx="191.74" cy="42.63" r="2.5"/><circle class="cls-3" cx="189.78" cy="102.98" r="3.95"/><circle class="cls-3" cx="129.83" cy="67.2" r="2.99"/><circle class="cls-3" cx="155.45" cy="70.25" r="2.99"/><circle class="cls-3" cx="91.02" cy="94.64" r="1.85"/><circle class="cls-3" cx="44.66" cy="93.25" r="1.85"/><circle class="cls-3" cx="144.49" cy="60.42" r="3.59"/><circle class="cls-3" cx="56.49" cy="69.42" r="3.59"/><circle class="cls-3" cx="20.49" cy="110.42" r="3.59"/><circle class="cls-3" cx="148.66" cy="64.93" r="1.85"/><circle class="cls-3" cx="73.71" cy="119.66" r="2.99"/><circle class="cls-3" cx="114.41" cy="113.95" r="3.95"/><circle class="cls-3" cx="82.37" cy="4.91" r="4.91"/><circle class="cls-3" cx="152.18" cy="109.32" r="2.32"/><line class="cls-5" x1="84.23" y1="138.48" x2="111.07" y2="145.8"/></g></g></g></svg>